<mxfile host="app.diagrams.net" modified="2024-07-05T01:56:09.031Z" agent="Mozilla/5.0 (Windows NT 10.0; Win64; x64) AppleWebKit/537.36 (KHTML, like Gecko) Chrome/126.0.0.0 Safari/537.36" etag="x5itvzlxPiHjWx6yBdG3" version="24.6.4" type="device">
  <diagram name="페이지-1" id="ZEp8MGLofbdIX7JLPofY">
    <mxGraphModel dx="3548" dy="1715" grid="1" gridSize="10" guides="1" tooltips="1" connect="1" arrows="1" fold="1" page="0" pageScale="1" pageWidth="827" pageHeight="1169" math="0" shadow="0">
      <root>
        <mxCell id="0" />
        <mxCell id="1" parent="0" />
        <mxCell id="PbIYio_T5DRapOlMZ3oK-103" value="" style="endArrow=none;dashed=1;html=1;dashPattern=1 3;strokeWidth=2;rounded=0;fontSize=12;startSize=8;endSize=8;curved=1;entryX=0.5;entryY=1;entryDx=0;entryDy=0;" edge="1" parent="1">
          <mxGeometry width="50" height="50" relative="1" as="geometry">
            <mxPoint x="79" y="3330" as="sourcePoint" />
            <mxPoint x="79" y="1810" as="targetPoint" />
          </mxGeometry>
        </mxCell>
        <mxCell id="PbIYio_T5DRapOlMZ3oK-102" value="" style="endArrow=none;dashed=1;html=1;dashPattern=1 3;strokeWidth=2;rounded=0;fontSize=12;startSize=8;endSize=8;curved=1;entryX=0.545;entryY=0.992;entryDx=0;entryDy=0;entryPerimeter=0;" edge="1" parent="1">
          <mxGeometry width="50" height="50" relative="1" as="geometry">
            <mxPoint x="-200" y="3331" as="sourcePoint" />
            <mxPoint x="-201" y="1809" as="targetPoint" />
          </mxGeometry>
        </mxCell>
        <mxCell id="PbIYio_T5DRapOlMZ3oK-100" value="" style="endArrow=none;dashed=1;html=1;dashPattern=1 3;strokeWidth=2;rounded=0;fontSize=12;startSize=8;endSize=8;curved=1;entryX=0.5;entryY=1;entryDx=0;entryDy=0;" edge="1" parent="1">
          <mxGeometry width="50" height="50" relative="1" as="geometry">
            <mxPoint x="360" y="3360" as="sourcePoint" />
            <mxPoint x="359" y="1810" as="targetPoint" />
          </mxGeometry>
        </mxCell>
        <mxCell id="PbIYio_T5DRapOlMZ3oK-70" value="" style="endArrow=none;dashed=1;html=1;dashPattern=1 3;strokeWidth=2;rounded=0;fontSize=12;startSize=8;endSize=8;curved=1;entryX=0.5;entryY=1;entryDx=0;entryDy=0;" edge="1" parent="1">
          <mxGeometry width="50" height="50" relative="1" as="geometry">
            <mxPoint x="919" y="3360" as="sourcePoint" />
            <mxPoint x="919" y="1810" as="targetPoint" />
          </mxGeometry>
        </mxCell>
        <mxCell id="PbIYio_T5DRapOlMZ3oK-69" value="" style="endArrow=none;dashed=1;html=1;dashPattern=1 3;strokeWidth=2;rounded=0;fontSize=12;startSize=8;endSize=8;curved=1;entryX=0.5;entryY=1;entryDx=0;entryDy=0;" edge="1" parent="1">
          <mxGeometry width="50" height="50" relative="1" as="geometry">
            <mxPoint x="640" y="3360" as="sourcePoint" />
            <mxPoint x="640" y="1810" as="targetPoint" />
          </mxGeometry>
        </mxCell>
        <mxCell id="9DNWAFKed83OJ6perg8Q-1" value="Client" style="rounded=1;whiteSpace=wrap;html=1;" parent="1" vertex="1">
          <mxGeometry x="-260" y="240" width="110" height="50" as="geometry" />
        </mxCell>
        <mxCell id="9DNWAFKed83OJ6perg8Q-2" value="" style="endArrow=none;dashed=1;html=1;dashPattern=1 3;strokeWidth=2;rounded=0;fontSize=12;startSize=8;endSize=8;curved=1;entryX=0.545;entryY=0.992;entryDx=0;entryDy=0;entryPerimeter=0;" parent="1" target="9DNWAFKed83OJ6perg8Q-1" edge="1">
          <mxGeometry width="50" height="50" relative="1" as="geometry">
            <mxPoint x="-200" y="840" as="sourcePoint" />
            <mxPoint x="-20" y="300" as="targetPoint" />
          </mxGeometry>
        </mxCell>
        <mxCell id="9DNWAFKed83OJ6perg8Q-3" value="Service" style="rounded=1;whiteSpace=wrap;html=1;" parent="1" vertex="1">
          <mxGeometry x="310" y="240" width="100" height="50" as="geometry" />
        </mxCell>
        <mxCell id="9DNWAFKed83OJ6perg8Q-4" value="" style="endArrow=none;dashed=1;html=1;dashPattern=1 3;strokeWidth=2;rounded=0;fontSize=12;startSize=8;endSize=8;curved=1;entryX=0.5;entryY=1;entryDx=0;entryDy=0;exitX=0.5;exitY=0;exitDx=0;exitDy=0;" parent="1" target="9DNWAFKed83OJ6perg8Q-3" edge="1">
          <mxGeometry width="50" height="50" relative="1" as="geometry">
            <mxPoint x="360" y="456" as="sourcePoint" />
            <mxPoint x="360" y="240" as="targetPoint" />
          </mxGeometry>
        </mxCell>
        <mxCell id="9DNWAFKed83OJ6perg8Q-5" value="DBMS" style="rounded=1;whiteSpace=wrap;html=1;" parent="1" vertex="1">
          <mxGeometry x="590" y="240" width="100" height="50" as="geometry" />
        </mxCell>
        <mxCell id="9DNWAFKed83OJ6perg8Q-6" value="" style="endArrow=none;dashed=1;html=1;dashPattern=1 3;strokeWidth=2;rounded=0;fontSize=12;startSize=8;endSize=8;curved=1;entryX=0.5;entryY=1;entryDx=0;entryDy=0;" parent="1" target="9DNWAFKed83OJ6perg8Q-5" edge="1">
          <mxGeometry width="50" height="50" relative="1" as="geometry">
            <mxPoint x="640" y="800" as="sourcePoint" />
            <mxPoint x="610" y="310" as="targetPoint" />
          </mxGeometry>
        </mxCell>
        <mxCell id="9DNWAFKed83OJ6perg8Q-7" value="Controller" style="rounded=1;whiteSpace=wrap;html=1;" parent="1" vertex="1">
          <mxGeometry x="30" y="240" width="100" height="50" as="geometry" />
        </mxCell>
        <mxCell id="9DNWAFKed83OJ6perg8Q-8" value="" style="endArrow=none;dashed=1;html=1;dashPattern=1 3;strokeWidth=2;rounded=0;fontSize=12;startSize=8;endSize=8;curved=1;entryX=0.5;entryY=1;entryDx=0;entryDy=0;" parent="1" target="9DNWAFKed83OJ6perg8Q-7" edge="1">
          <mxGeometry width="50" height="50" relative="1" as="geometry">
            <mxPoint x="80" y="325" as="sourcePoint" />
            <mxPoint x="79.23000000000002" y="300" as="targetPoint" />
          </mxGeometry>
        </mxCell>
        <mxCell id="9DNWAFKed83OJ6perg8Q-13" value="View" style="rounded=1;whiteSpace=wrap;html=1;" parent="1" vertex="1">
          <mxGeometry x="870" y="240" width="100" height="50" as="geometry" />
        </mxCell>
        <mxCell id="9DNWAFKed83OJ6perg8Q-14" value="" style="endArrow=none;dashed=1;html=1;dashPattern=1 3;strokeWidth=2;rounded=0;fontSize=12;startSize=8;endSize=8;curved=1;entryX=0.5;entryY=1;entryDx=0;entryDy=0;" parent="1" target="9DNWAFKed83OJ6perg8Q-13" edge="1">
          <mxGeometry width="50" height="50" relative="1" as="geometry">
            <mxPoint x="920" y="656" as="sourcePoint" />
            <mxPoint x="919.23" y="300" as="targetPoint" />
          </mxGeometry>
        </mxCell>
        <mxCell id="9DNWAFKed83OJ6perg8Q-22" value="" style="endArrow=none;dashed=1;html=1;dashPattern=1 3;strokeWidth=2;rounded=0;fontSize=12;startSize=8;endSize=8;curved=1;entryX=0.5;entryY=1;entryDx=0;entryDy=0;" parent="1" edge="1">
          <mxGeometry width="50" height="50" relative="1" as="geometry">
            <mxPoint x="79.23000000000002" y="810" as="sourcePoint" />
            <mxPoint x="80" y="425" as="targetPoint" />
          </mxGeometry>
        </mxCell>
        <mxCell id="9DNWAFKed83OJ6perg8Q-28" value="" style="endArrow=none;dashed=1;html=1;dashPattern=1 3;strokeWidth=2;rounded=0;fontSize=12;startSize=8;endSize=8;curved=1;entryX=0.5;entryY=1;entryDx=0;entryDy=0;" parent="1" edge="1">
          <mxGeometry width="50" height="50" relative="1" as="geometry">
            <mxPoint x="360" y="705" as="sourcePoint" />
            <mxPoint x="360" y="405" as="targetPoint" />
          </mxGeometry>
        </mxCell>
        <mxCell id="9DNWAFKed83OJ6perg8Q-62" value="" style="endArrow=classic;html=1;rounded=0;fontSize=12;startSize=8;endSize=8;curved=1;entryX=-0.057;entryY=0.284;entryDx=0;entryDy=0;exitX=1.014;exitY=0.336;exitDx=0;exitDy=0;entryPerimeter=0;exitPerimeter=0;" parent="1" edge="1">
          <mxGeometry width="50" height="50" relative="1" as="geometry">
            <mxPoint x="90.27999999999997" y="400.0719999999999" as="sourcePoint" />
            <mxPoint x="348.8599999999999" y="399.328" as="targetPoint" />
          </mxGeometry>
        </mxCell>
        <UserObject label="메인 페이지 요청을 처리하는&lt;div&gt;서비스 빈으로의 분기&lt;/div&gt;" placeholders="1" name="Variable" id="9DNWAFKed83OJ6perg8Q-63">
          <mxCell style="text;html=1;strokeColor=none;fillColor=none;align=center;verticalAlign=middle;whiteSpace=wrap;overflow=hidden;" parent="1" vertex="1">
            <mxGeometry x="110" y="359" width="230" height="32" as="geometry" />
          </mxCell>
        </UserObject>
        <mxCell id="9DNWAFKed83OJ6perg8Q-64" value="" style="endArrow=classic;html=1;rounded=0;fontSize=12;startSize=8;endSize=8;curved=1;entryX=-0.057;entryY=0.284;entryDx=0;entryDy=0;exitX=1.014;exitY=0.336;exitDx=0;exitDy=0;entryPerimeter=0;exitPerimeter=0;" parent="1" edge="1">
          <mxGeometry width="50" height="50" relative="1" as="geometry">
            <mxPoint x="370" y="421.7419999999999" as="sourcePoint" />
            <mxPoint x="628.5799999999999" y="420.998" as="targetPoint" />
          </mxGeometry>
        </mxCell>
        <UserObject label="전체 채팅 방 개수 및&lt;div&gt;전체 채팅 방 내 참여 인원 수 요청&lt;/div&gt;" placeholders="1" name="Variable" id="9DNWAFKed83OJ6perg8Q-65">
          <mxCell style="text;html=1;strokeColor=none;fillColor=none;align=center;verticalAlign=middle;whiteSpace=wrap;overflow=hidden;" parent="1" vertex="1">
            <mxGeometry x="383" y="383" width="230" height="32" as="geometry" />
          </mxCell>
        </UserObject>
        <mxCell id="9DNWAFKed83OJ6perg8Q-66" value="" style="endArrow=classic;html=1;rounded=0;fontSize=12;startSize=8;endSize=8;curved=0;entryX=1;entryY=0.5;entryDx=0;entryDy=0;exitX=0.95;exitY=0.283;exitDx=0;exitDy=0;exitPerimeter=0;" parent="1" edge="1">
          <mxGeometry width="50" height="50" relative="1" as="geometry">
            <mxPoint x="649" y="438.1859999999999" as="sourcePoint" />
            <mxPoint x="650" y="469.0000000000002" as="targetPoint" />
            <Array as="points">
              <mxPoint x="690" y="438" />
              <mxPoint x="690" y="469" />
            </Array>
          </mxGeometry>
        </mxCell>
        <UserObject label="전체 채팅 방 개수 및&lt;div&gt;전체 채팅 방 내 참여 인원 수 조회&lt;/div&gt;" placeholders="1" name="Variable" id="9DNWAFKed83OJ6perg8Q-67">
          <mxCell style="text;html=1;strokeColor=none;fillColor=none;align=center;verticalAlign=middle;whiteSpace=wrap;overflow=hidden;" parent="1" vertex="1">
            <mxGeometry x="694" y="437" width="200" height="32" as="geometry" />
          </mxCell>
        </UserObject>
        <mxCell id="9DNWAFKed83OJ6perg8Q-68" value="" style="endArrow=classic;html=1;rounded=0;fontSize=12;startSize=8;endSize=8;curved=1;exitX=-0.007;exitY=0.837;exitDx=0;exitDy=0;exitPerimeter=0;entryX=0.964;entryY=0.711;entryDx=0;entryDy=0;entryPerimeter=0;dashed=1;" parent="1" edge="1">
          <mxGeometry width="50" height="50" relative="1" as="geometry">
            <mxPoint x="629.8600000000001" y="499.951" as="sourcePoint" />
            <mxPoint x="369.28" y="500.87" as="targetPoint" />
          </mxGeometry>
        </mxCell>
        <UserObject label="조회 결과 반환" placeholders="1" name="Variable" id="9DNWAFKed83OJ6perg8Q-71">
          <mxCell style="text;html=1;strokeColor=none;fillColor=none;align=center;verticalAlign=middle;whiteSpace=wrap;overflow=hidden;" parent="1" vertex="1">
            <mxGeometry x="386" y="469" width="230" height="32" as="geometry" />
          </mxCell>
        </UserObject>
        <mxCell id="9DNWAFKed83OJ6perg8Q-74" value="" style="rounded=1;whiteSpace=wrap;html=1;" parent="1" vertex="1">
          <mxGeometry x="350" y="381" width="20" height="164" as="geometry" />
        </mxCell>
        <mxCell id="9DNWAFKed83OJ6perg8Q-75" value="" style="endArrow=classic;html=1;rounded=0;fontSize=12;startSize=8;endSize=8;curved=1;exitX=-0.007;exitY=0.837;exitDx=0;exitDy=0;exitPerimeter=0;entryX=0.964;entryY=0.711;entryDx=0;entryDy=0;entryPerimeter=0;dashed=1;" parent="1" edge="1">
          <mxGeometry width="50" height="50" relative="1" as="geometry">
            <mxPoint x="350.0000000000001" y="519.001" as="sourcePoint" />
            <mxPoint x="89.41999999999996" y="519.92" as="targetPoint" />
          </mxGeometry>
        </mxCell>
        <UserObject label="컨트롤러로 반환." placeholders="1" name="Variable" id="9DNWAFKed83OJ6perg8Q-76">
          <mxCell style="text;html=1;strokeColor=none;fillColor=none;align=center;verticalAlign=middle;whiteSpace=wrap;overflow=hidden;" parent="1" vertex="1">
            <mxGeometry x="105" y="480" width="230" height="32" as="geometry" />
          </mxCell>
        </UserObject>
        <mxCell id="9DNWAFKed83OJ6perg8Q-77" value="" style="rounded=1;whiteSpace=wrap;html=1;" parent="1" vertex="1">
          <mxGeometry x="630" y="398" width="20" height="123" as="geometry" />
        </mxCell>
        <mxCell id="9DNWAFKed83OJ6perg8Q-79" value="" style="endArrow=none;dashed=1;html=1;dashPattern=1 3;strokeWidth=2;rounded=0;fontSize=12;startSize=8;endSize=8;curved=1;entryX=0.5;entryY=1;entryDx=0;entryDy=0;" parent="1" edge="1">
          <mxGeometry width="50" height="50" relative="1" as="geometry">
            <mxPoint x="919.23" y="735" as="sourcePoint" />
            <mxPoint x="920" y="704" as="targetPoint" />
          </mxGeometry>
        </mxCell>
        <mxCell id="9DNWAFKed83OJ6perg8Q-80" value="" style="rounded=1;whiteSpace=wrap;html=1;" parent="1" vertex="1">
          <mxGeometry x="70" y="328" width="20" height="302" as="geometry" />
        </mxCell>
        <mxCell id="9DNWAFKed83OJ6perg8Q-82" value="" style="endArrow=classic;html=1;rounded=0;fontSize=12;startSize=8;endSize=8;curved=1;entryX=-0.026;entryY=0.11;entryDx=0;entryDy=0;exitX=1.014;exitY=0.336;exitDx=0;exitDy=0;entryPerimeter=0;exitPerimeter=0;" parent="1" edge="1">
          <mxGeometry width="50" height="50" relative="1" as="geometry">
            <mxPoint x="90" y="600.742" as="sourcePoint" />
            <mxPoint x="909" y="600" as="targetPoint" />
          </mxGeometry>
        </mxCell>
        <UserObject label="전체 채팅방 개수와&lt;div style=&quot;font-size: 11px;&quot;&gt;전체 참여 인원으로 메인 페이지 요청&lt;/div&gt;" placeholders="1" name="Variable" id="9DNWAFKed83OJ6perg8Q-83">
          <mxCell style="text;html=1;strokeColor=none;fillColor=none;align=center;verticalAlign=middle;whiteSpace=wrap;overflow=hidden;fontSize=11;" parent="1" vertex="1">
            <mxGeometry x="100" y="566" width="221" height="32" as="geometry" />
          </mxCell>
        </UserObject>
        <mxCell id="9DNWAFKed83OJ6perg8Q-84" value="" style="endArrow=classic;html=1;rounded=0;fontSize=12;startSize=8;endSize=8;curved=1;entryX=1.142;entryY=0.94;entryDx=0;entryDy=0;dashed=1;entryPerimeter=0;" parent="1" edge="1">
          <mxGeometry width="50" height="50" relative="1" as="geometry">
            <mxPoint x="910" y="682" as="sourcePoint" />
            <mxPoint x="-181.74" y="682.6000000000001" as="targetPoint" />
          </mxGeometry>
        </mxCell>
        <UserObject label="메인 페이지 생성 후 반환" placeholders="1" name="Variable" id="9DNWAFKed83OJ6perg8Q-85">
          <mxCell style="text;html=1;strokeColor=none;fillColor=none;align=center;verticalAlign=middle;whiteSpace=wrap;overflow=hidden;" parent="1" vertex="1">
            <mxGeometry x="664" y="648" width="230" height="32" as="geometry" />
          </mxCell>
        </UserObject>
        <mxCell id="9DNWAFKed83OJ6perg8Q-88" value="" style="rounded=1;whiteSpace=wrap;html=1;" parent="1" vertex="1">
          <mxGeometry x="910" y="581" width="20" height="123" as="geometry" />
        </mxCell>
        <mxCell id="9DNWAFKed83OJ6perg8Q-89" value="" style="rounded=1;whiteSpace=wrap;html=1;" parent="1" vertex="1">
          <mxGeometry x="-216" y="300" width="30" height="490" as="geometry" />
        </mxCell>
        <mxCell id="9DNWAFKed83OJ6perg8Q-90" value="[메인 페이지]" style="text;html=1;align=center;verticalAlign=middle;whiteSpace=wrap;rounded=0;fontSize=50;" parent="1" vertex="1">
          <mxGeometry x="30" y="80" width="490" height="30" as="geometry" />
        </mxCell>
        <mxCell id="9DNWAFKed83OJ6perg8Q-91" value="[메인 페이지에서 채팅 대기방 페이지 요청에 대한 응답]" style="text;html=1;align=center;verticalAlign=middle;whiteSpace=wrap;rounded=0;fontSize=50;" parent="1" vertex="1">
          <mxGeometry x="-204.92000000000002" y="890" width="1265" height="30" as="geometry" />
        </mxCell>
        <mxCell id="9DNWAFKed83OJ6perg8Q-93" value="Client" style="rounded=1;whiteSpace=wrap;html=1;" parent="1" vertex="1">
          <mxGeometry x="-260" y="990" width="110" height="50" as="geometry" />
        </mxCell>
        <mxCell id="9DNWAFKed83OJ6perg8Q-94" value="" style="endArrow=none;dashed=1;html=1;dashPattern=1 3;strokeWidth=2;rounded=0;fontSize=12;startSize=8;endSize=8;curved=1;entryX=0.545;entryY=0.992;entryDx=0;entryDy=0;entryPerimeter=0;" parent="1" target="9DNWAFKed83OJ6perg8Q-93" edge="1">
          <mxGeometry width="50" height="50" relative="1" as="geometry">
            <mxPoint x="-200" y="1590" as="sourcePoint" />
            <mxPoint x="-20" y="1050" as="targetPoint" />
          </mxGeometry>
        </mxCell>
        <mxCell id="9DNWAFKed83OJ6perg8Q-95" value="Service" style="rounded=1;whiteSpace=wrap;html=1;" parent="1" vertex="1">
          <mxGeometry x="310" y="990" width="100" height="50" as="geometry" />
        </mxCell>
        <mxCell id="9DNWAFKed83OJ6perg8Q-96" value="" style="endArrow=none;dashed=1;html=1;dashPattern=1 3;strokeWidth=2;rounded=0;fontSize=12;startSize=8;endSize=8;curved=1;entryX=0.5;entryY=1;entryDx=0;entryDy=0;exitX=0.5;exitY=0;exitDx=0;exitDy=0;" parent="1" target="9DNWAFKed83OJ6perg8Q-95" edge="1">
          <mxGeometry width="50" height="50" relative="1" as="geometry">
            <mxPoint x="360.0000000000002" y="1198" as="sourcePoint" />
            <mxPoint x="360" y="990" as="targetPoint" />
          </mxGeometry>
        </mxCell>
        <mxCell id="9DNWAFKed83OJ6perg8Q-97" value="DBMS" style="rounded=1;whiteSpace=wrap;html=1;" parent="1" vertex="1">
          <mxGeometry x="590" y="990" width="100" height="50" as="geometry" />
        </mxCell>
        <mxCell id="9DNWAFKed83OJ6perg8Q-98" value="" style="endArrow=none;dashed=1;html=1;dashPattern=1 3;strokeWidth=2;rounded=0;fontSize=12;startSize=8;endSize=8;curved=1;entryX=0.5;entryY=1;entryDx=0;entryDy=0;" parent="1" target="9DNWAFKed83OJ6perg8Q-97" edge="1">
          <mxGeometry width="50" height="50" relative="1" as="geometry">
            <mxPoint x="640" y="1220" as="sourcePoint" />
            <mxPoint x="610" y="1060" as="targetPoint" />
          </mxGeometry>
        </mxCell>
        <mxCell id="9DNWAFKed83OJ6perg8Q-99" value="Controller" style="rounded=1;whiteSpace=wrap;html=1;" parent="1" vertex="1">
          <mxGeometry x="30" y="990" width="100" height="50" as="geometry" />
        </mxCell>
        <mxCell id="9DNWAFKed83OJ6perg8Q-100" value="View" style="rounded=1;whiteSpace=wrap;html=1;" parent="1" vertex="1">
          <mxGeometry x="870" y="990" width="100" height="50" as="geometry" />
        </mxCell>
        <mxCell id="9DNWAFKed83OJ6perg8Q-101" value="" style="endArrow=none;dashed=1;html=1;dashPattern=1 3;strokeWidth=2;rounded=0;fontSize=12;startSize=8;endSize=8;curved=1;entryX=0.5;entryY=1;entryDx=0;entryDy=0;" parent="1" target="9DNWAFKed83OJ6perg8Q-100" edge="1">
          <mxGeometry width="50" height="50" relative="1" as="geometry">
            <mxPoint x="920" y="1440" as="sourcePoint" />
            <mxPoint x="919.23" y="1050" as="targetPoint" />
          </mxGeometry>
        </mxCell>
        <mxCell id="9DNWAFKed83OJ6perg8Q-102" value="" style="endArrow=none;dashed=1;html=1;dashPattern=1 3;strokeWidth=2;rounded=0;fontSize=12;startSize=8;endSize=8;curved=1;entryX=0.5;entryY=1;entryDx=0;entryDy=0;" parent="1" target="9DNWAFKed83OJ6perg8Q-99" edge="1">
          <mxGeometry width="50" height="50" relative="1" as="geometry">
            <mxPoint x="80" y="1100" as="sourcePoint" />
            <mxPoint x="80" y="1175" as="targetPoint" />
          </mxGeometry>
        </mxCell>
        <mxCell id="9DNWAFKed83OJ6perg8Q-103" value="" style="rounded=1;whiteSpace=wrap;html=1;" parent="1" vertex="1">
          <mxGeometry x="-214" y="1079" width="26" height="481" as="geometry" />
        </mxCell>
        <mxCell id="9DNWAFKed83OJ6perg8Q-105" value="" style="endArrow=none;dashed=1;html=1;dashPattern=1 3;strokeWidth=2;rounded=0;fontSize=12;startSize=8;endSize=8;curved=1;entryX=0.5;entryY=1;entryDx=0;entryDy=0;" parent="1" edge="1">
          <mxGeometry width="50" height="50" relative="1" as="geometry">
            <mxPoint x="80" y="1400" as="sourcePoint" />
            <mxPoint x="80" y="1390" as="targetPoint" />
          </mxGeometry>
        </mxCell>
        <UserObject label="사용자의 닉네임 입력 및&lt;div&gt;채팅 대기방 페이지 요청&lt;/div&gt;" placeholders="1" name="Variable" id="9DNWAFKed83OJ6perg8Q-107">
          <mxCell style="text;html=1;strokeColor=none;fillColor=none;align=center;verticalAlign=middle;whiteSpace=wrap;overflow=hidden;" parent="1" vertex="1">
            <mxGeometry x="-152.69" y="1083" width="190" height="32" as="geometry" />
          </mxCell>
        </UserObject>
        <mxCell id="9DNWAFKed83OJ6perg8Q-108" value="" style="endArrow=classic;html=1;rounded=0;fontSize=12;startSize=8;endSize=8;curved=1;entryX=0;entryY=0.22;entryDx=0;entryDy=0;entryPerimeter=0;exitX=1.023;exitY=0.106;exitDx=0;exitDy=0;exitPerimeter=0;" parent="1" edge="1">
          <mxGeometry width="50" height="50" relative="1" as="geometry">
            <mxPoint x="-187.99999999999994" y="1120" as="sourcePoint" />
            <mxPoint x="67.31" y="1120.18" as="targetPoint" />
          </mxGeometry>
        </mxCell>
        <mxCell id="9DNWAFKed83OJ6perg8Q-110" value="" style="endArrow=none;dashed=1;html=1;dashPattern=1 3;strokeWidth=2;rounded=0;fontSize=12;startSize=8;endSize=8;curved=1;entryX=0.5;entryY=1;entryDx=0;entryDy=0;" parent="1" target="9DNWAFKed83OJ6perg8Q-131" edge="1">
          <mxGeometry width="50" height="50" relative="1" as="geometry">
            <mxPoint x="360" y="1560" as="sourcePoint" />
            <mxPoint x="360.0000000000002" y="1475.9999999999995" as="targetPoint" />
          </mxGeometry>
        </mxCell>
        <UserObject label="HTTP 요청에 따른 세션 객체의 생성과&lt;div&gt;사용자 닉네임의 세션 저장.&lt;/div&gt;" placeholders="1" name="Variable" id="9DNWAFKed83OJ6perg8Q-111">
          <mxCell style="text;html=1;strokeColor=none;fillColor=none;align=center;verticalAlign=middle;whiteSpace=wrap;overflow=hidden;" parent="1" vertex="1">
            <mxGeometry x="124" y="1142" width="210" height="32" as="geometry" />
          </mxCell>
        </UserObject>
        <mxCell id="9DNWAFKed83OJ6perg8Q-112" value="" style="endArrow=classic;html=1;rounded=0;fontSize=12;startSize=8;endSize=8;curved=0;exitX=1.077;exitY=0.159;exitDx=0;exitDy=0;exitPerimeter=0;entryX=1;entryY=0.297;entryDx=0;entryDy=0;entryPerimeter=0;" parent="1" edge="1">
          <mxGeometry width="50" height="50" relative="1" as="geometry">
            <mxPoint x="95.00199999999995" y="1137.11" as="sourcePoint" />
            <mxPoint x="93" y="1177.13" as="targetPoint" />
            <Array as="points">
              <mxPoint x="120" y="1137" />
              <mxPoint x="120" y="1177" />
            </Array>
          </mxGeometry>
        </mxCell>
        <mxCell id="9DNWAFKed83OJ6perg8Q-114" value="" style="endArrow=classic;html=1;rounded=0;fontSize=12;startSize=8;endSize=8;curved=1;exitX=1.098;exitY=0.456;exitDx=0;exitDy=0;exitPerimeter=0;entryX=-0.038;entryY=0.117;entryDx=0;entryDy=0;entryPerimeter=0;" parent="1" edge="1">
          <mxGeometry width="50" height="50" relative="1" as="geometry">
            <mxPoint x="95.548" y="1232.24" as="sourcePoint" />
            <mxPoint x="346.01199999999994" y="1231.9299999999998" as="targetPoint" />
          </mxGeometry>
        </mxCell>
        <UserObject label="채팅 대기방 페이지 요청을 처리하는&lt;div&gt;서비스 빈으로의 분기&lt;/div&gt;" placeholders="1" name="Variable" id="9DNWAFKed83OJ6perg8Q-117">
          <mxCell style="text;html=1;strokeColor=none;fillColor=none;align=center;verticalAlign=middle;whiteSpace=wrap;overflow=hidden;" parent="1" vertex="1">
            <mxGeometry x="105.5" y="1199" width="210" height="32" as="geometry" />
          </mxCell>
        </UserObject>
        <mxCell id="9DNWAFKed83OJ6perg8Q-122" value="" style="endArrow=none;dashed=1;html=1;dashPattern=1 3;strokeWidth=2;rounded=0;fontSize=12;startSize=8;endSize=8;curved=1;entryX=0.5;entryY=1;entryDx=0;entryDy=0;" parent="1" target="9DNWAFKed83OJ6perg8Q-132" edge="1">
          <mxGeometry width="50" height="50" relative="1" as="geometry">
            <mxPoint x="640" y="1550" as="sourcePoint" />
            <mxPoint x="640" y="1510" as="targetPoint" />
          </mxGeometry>
        </mxCell>
        <mxCell id="9DNWAFKed83OJ6perg8Q-123" value="" style="endArrow=classic;html=1;rounded=0;fontSize=12;startSize=8;endSize=8;curved=1;exitX=1.098;exitY=0.456;exitDx=0;exitDy=0;exitPerimeter=0;entryX=-0.038;entryY=0.117;entryDx=0;entryDy=0;entryPerimeter=0;" parent="1" edge="1">
          <mxGeometry width="50" height="50" relative="1" as="geometry">
            <mxPoint x="376.538" y="1266.31" as="sourcePoint" />
            <mxPoint x="627.002" y="1265.9999999999998" as="targetPoint" />
          </mxGeometry>
        </mxCell>
        <UserObject label="각 채팅방의 번호, 방 제목, 참여 인원수를&lt;div&gt;포함한 모든 채팅방 정보 요청&lt;/div&gt;" placeholders="1" name="Variable" id="9DNWAFKed83OJ6perg8Q-124">
          <mxCell style="text;html=1;strokeColor=none;fillColor=none;align=center;verticalAlign=middle;whiteSpace=wrap;overflow=hidden;" parent="1" vertex="1">
            <mxGeometry x="386" y="1229" width="227" height="32" as="geometry" />
          </mxCell>
        </UserObject>
        <UserObject label="요청 내용인 모든 채팅 방 별 정보 조회" placeholders="1" name="Variable" id="9DNWAFKed83OJ6perg8Q-125">
          <mxCell style="text;html=1;strokeColor=none;fillColor=none;align=center;verticalAlign=middle;whiteSpace=wrap;overflow=hidden;" parent="1" vertex="1">
            <mxGeometry x="684" y="1285" width="210" height="32" as="geometry" />
          </mxCell>
        </UserObject>
        <mxCell id="9DNWAFKed83OJ6perg8Q-126" value="" style="endArrow=classic;html=1;rounded=0;fontSize=12;startSize=8;endSize=8;curved=0;exitX=1.077;exitY=0.159;exitDx=0;exitDy=0;exitPerimeter=0;entryX=1;entryY=0.297;entryDx=0;entryDy=0;entryPerimeter=0;" parent="1" edge="1">
          <mxGeometry width="50" height="50" relative="1" as="geometry">
            <mxPoint x="655.002" y="1280.11" as="sourcePoint" />
            <mxPoint x="653" y="1320.13" as="targetPoint" />
            <Array as="points">
              <mxPoint x="680" y="1280" />
              <mxPoint x="680" y="1320" />
            </Array>
          </mxGeometry>
        </mxCell>
        <mxCell id="9DNWAFKed83OJ6perg8Q-127" value="" style="endArrow=classic;html=1;rounded=0;fontSize=12;startSize=8;endSize=8;curved=1;exitX=-0.007;exitY=0.837;exitDx=0;exitDy=0;exitPerimeter=0;entryX=1.018;entryY=0.561;entryDx=0;entryDy=0;dashed=1;entryPerimeter=0;" parent="1" edge="1">
          <mxGeometry width="50" height="50" relative="1" as="geometry">
            <mxPoint x="627.0000000000001" y="1359.951" as="sourcePoint" />
            <mxPoint x="373.4680000000001" y="1360.69" as="targetPoint" />
          </mxGeometry>
        </mxCell>
        <UserObject label="조회 결과 반환" placeholders="1" name="Variable" id="9DNWAFKed83OJ6perg8Q-128">
          <mxCell style="text;html=1;strokeColor=none;fillColor=none;align=center;verticalAlign=middle;whiteSpace=wrap;overflow=hidden;" parent="1" vertex="1">
            <mxGeometry x="399.86" y="1326" width="190.14" height="34" as="geometry" />
          </mxCell>
        </UserObject>
        <mxCell id="9DNWAFKed83OJ6perg8Q-129" value="" style="endArrow=classic;html=1;rounded=0;fontSize=12;startSize=8;endSize=8;curved=1;exitX=-0.007;exitY=0.837;exitDx=0;exitDy=0;exitPerimeter=0;dashed=1;" parent="1" edge="1">
          <mxGeometry width="50" height="50" relative="1" as="geometry">
            <mxPoint x="347.1400000000001" y="1379.001" as="sourcePoint" />
            <mxPoint x="95" y="1380" as="targetPoint" />
          </mxGeometry>
        </mxCell>
        <UserObject label="컨트롤러로 반환." placeholders="1" name="Variable" id="9DNWAFKed83OJ6perg8Q-130">
          <mxCell style="text;html=1;strokeColor=none;fillColor=none;align=center;verticalAlign=middle;whiteSpace=wrap;overflow=hidden;" parent="1" vertex="1">
            <mxGeometry x="147.5" y="1345" width="126" height="32" as="geometry" />
          </mxCell>
        </UserObject>
        <mxCell id="9DNWAFKed83OJ6perg8Q-131" value="" style="rounded=1;whiteSpace=wrap;html=1;" parent="1" vertex="1">
          <mxGeometry x="347" y="1198" width="26" height="212" as="geometry" />
        </mxCell>
        <mxCell id="9DNWAFKed83OJ6perg8Q-132" value="" style="rounded=1;whiteSpace=wrap;html=1;" parent="1" vertex="1">
          <mxGeometry x="627" y="1220" width="26" height="160" as="geometry" />
        </mxCell>
        <mxCell id="9DNWAFKed83OJ6perg8Q-134" value="" style="endArrow=none;dashed=1;html=1;dashPattern=1 3;strokeWidth=2;rounded=0;fontSize=12;startSize=8;endSize=8;curved=1;entryX=0.5;entryY=1;entryDx=0;entryDy=0;" parent="1" edge="1">
          <mxGeometry width="50" height="50" relative="1" as="geometry">
            <mxPoint x="79.23000000000002" y="1560" as="sourcePoint" />
            <mxPoint x="80" y="1400" as="targetPoint" />
          </mxGeometry>
        </mxCell>
        <mxCell id="9DNWAFKed83OJ6perg8Q-136" value="" style="rounded=1;whiteSpace=wrap;html=1;" parent="1" vertex="1">
          <mxGeometry x="67" y="1110" width="26" height="400" as="geometry" />
        </mxCell>
        <mxCell id="9DNWAFKed83OJ6perg8Q-137" value="" style="endArrow=classic;html=1;rounded=0;fontSize=12;startSize=8;endSize=8;curved=1;entryX=-0.095;entryY=0.123;entryDx=0;entryDy=0;exitX=1.014;exitY=0.336;exitDx=0;exitDy=0;entryPerimeter=0;exitPerimeter=0;" parent="1" edge="1">
          <mxGeometry width="50" height="50" relative="1" as="geometry">
            <mxPoint x="95" y="1454.742" as="sourcePoint" />
            <mxPoint x="908.1000000000001" y="1455.129" as="targetPoint" />
          </mxGeometry>
        </mxCell>
        <UserObject label="각 채팅 방 별 방 번호, 방 제목, 참여 인원수의&lt;div&gt;정보를 토대로 채팅 대기방 페이지 요청&lt;/div&gt;" placeholders="1" name="Variable" id="9DNWAFKed83OJ6perg8Q-138">
          <mxCell style="text;html=1;strokeColor=none;fillColor=none;align=center;verticalAlign=middle;whiteSpace=wrap;overflow=hidden;fontSize=11;" parent="1" vertex="1">
            <mxGeometry x="105" y="1420" width="245" height="32" as="geometry" />
          </mxCell>
        </UserObject>
        <mxCell id="9DNWAFKed83OJ6perg8Q-139" value="" style="endArrow=classic;html=1;rounded=0;fontSize=12;startSize=8;endSize=8;curved=1;entryX=1.005;entryY=0.917;entryDx=0;entryDy=0;dashed=1;entryPerimeter=0;exitX=-0.061;exitY=0.761;exitDx=0;exitDy=0;exitPerimeter=0;" parent="1" target="9DNWAFKed83OJ6perg8Q-103" edge="1">
          <mxGeometry width="50" height="50" relative="1" as="geometry">
            <mxPoint x="908.78" y="1520.603" as="sourcePoint" />
            <mxPoint x="-188.28599999999994" y="1521.507" as="targetPoint" />
          </mxGeometry>
        </mxCell>
        <mxCell id="9DNWAFKed83OJ6perg8Q-141" value="" style="endArrow=none;dashed=1;html=1;dashPattern=1 3;strokeWidth=2;rounded=0;fontSize=12;startSize=8;endSize=8;curved=1;entryX=0.5;entryY=1;entryDx=0;entryDy=0;" parent="1" edge="1">
          <mxGeometry width="50" height="50" relative="1" as="geometry">
            <mxPoint x="920" y="1550" as="sourcePoint" />
            <mxPoint x="920" y="1563" as="targetPoint" />
          </mxGeometry>
        </mxCell>
        <mxCell id="9DNWAFKed83OJ6perg8Q-142" value="" style="rounded=1;whiteSpace=wrap;html=1;" parent="1" vertex="1">
          <mxGeometry x="910" y="1440" width="20" height="100" as="geometry" />
        </mxCell>
        <UserObject label="&lt;span style=&quot;font-size: 11px;&quot;&gt;세션에 저장된 닉네임 정보와 각 채팅 방 별&lt;/span&gt;&lt;div&gt;&lt;span style=&quot;font-size: 11px;&quot;&gt;정보를 이용하여 채팅 대기방 생성 및 응답 반환.&lt;/span&gt;&lt;/div&gt;" placeholders="1" name="Variable" id="9DNWAFKed83OJ6perg8Q-143">
          <mxCell style="text;html=1;strokeColor=none;fillColor=none;align=center;verticalAlign=middle;whiteSpace=wrap;overflow=hidden;" parent="1" vertex="1">
            <mxGeometry x="660" y="1483" width="244" height="32" as="geometry" />
          </mxCell>
        </UserObject>
        <mxCell id="9DNWAFKed83OJ6perg8Q-144" value="[채팅 대기방 시퀸즈 다이어 그램]" style="text;html=1;align=center;verticalAlign=middle;whiteSpace=wrap;rounded=0;fontSize=50;" parent="1" vertex="1">
          <mxGeometry x="-60" y="1632" width="830" height="47" as="geometry" />
        </mxCell>
        <mxCell id="9DNWAFKed83OJ6perg8Q-145" value="Client" style="rounded=1;whiteSpace=wrap;html=1;" parent="1" vertex="1">
          <mxGeometry x="-260" y="1760" width="110" height="50" as="geometry" />
        </mxCell>
        <mxCell id="9DNWAFKed83OJ6perg8Q-146" value="Service" style="rounded=1;whiteSpace=wrap;html=1;" parent="1" vertex="1">
          <mxGeometry x="310" y="1760" width="100" height="50" as="geometry" />
        </mxCell>
        <mxCell id="9DNWAFKed83OJ6perg8Q-147" value="DBMS" style="rounded=1;whiteSpace=wrap;html=1;" parent="1" vertex="1">
          <mxGeometry x="590" y="1760" width="100" height="50" as="geometry" />
        </mxCell>
        <mxCell id="9DNWAFKed83OJ6perg8Q-148" value="Controller" style="rounded=1;whiteSpace=wrap;html=1;" parent="1" vertex="1">
          <mxGeometry x="30" y="1760" width="100" height="50" as="geometry" />
        </mxCell>
        <mxCell id="9DNWAFKed83OJ6perg8Q-149" value="View" style="rounded=1;whiteSpace=wrap;html=1;" parent="1" vertex="1">
          <mxGeometry x="870" y="1760" width="100" height="50" as="geometry" />
        </mxCell>
        <UserObject label="채팅 방 생성 페이지 요청" placeholders="1" name="Variable" id="9DNWAFKed83OJ6perg8Q-162">
          <mxCell style="text;html=1;strokeColor=none;fillColor=none;align=center;verticalAlign=middle;whiteSpace=wrap;overflow=hidden;" parent="1" vertex="1">
            <mxGeometry x="-150" y="1888" width="190" height="32" as="geometry" />
          </mxCell>
        </UserObject>
        <mxCell id="9DNWAFKed83OJ6perg8Q-168" value="" style="rounded=1;whiteSpace=wrap;html=1;" parent="1" vertex="1">
          <mxGeometry x="66" y="1897" width="26" height="77" as="geometry" />
        </mxCell>
        <mxCell id="9DNWAFKed83OJ6perg8Q-169" value="" style="endArrow=classic;html=1;rounded=0;fontSize=12;startSize=8;endSize=8;curved=1;exitX=-0.03;exitY=0.66;exitDx=0;exitDy=0;exitPerimeter=0;dashed=1;entryX=1.042;entryY=0.543;entryDx=0;entryDy=0;entryPerimeter=0;" parent="1" edge="1">
          <mxGeometry width="50" height="50" relative="1" as="geometry">
            <mxPoint x="907.22" y="1999.73" as="sourcePoint" />
            <mxPoint x="-189.16000000000008" y="1999.777" as="targetPoint" />
          </mxGeometry>
        </mxCell>
        <mxCell id="9DNWAFKed83OJ6perg8Q-174" value="" style="rounded=1;whiteSpace=wrap;html=1;" parent="1" vertex="1">
          <mxGeometry x="908" y="1923.5" width="26" height="96.5" as="geometry" />
        </mxCell>
        <mxCell id="9DNWAFKed83OJ6perg8Q-198" value="" style="endArrow=classic;html=1;rounded=0;fontSize=12;startSize=8;endSize=8;curved=0;exitX=1.013;exitY=0.281;exitDx=0;exitDy=0;entryX=1.001;entryY=0.454;entryDx=0;entryDy=0;exitPerimeter=0;entryPerimeter=0;" parent="1" edge="1">
          <mxGeometry width="50" height="50" relative="1" as="geometry">
            <mxPoint x="654.3380000000002" y="2203.9599999999996" as="sourcePoint" />
            <mxPoint x="654.0260000000003" y="2231.64" as="targetPoint" />
            <Array as="points">
              <mxPoint x="690" y="2204" />
              <mxPoint x="690" y="2232" />
            </Array>
          </mxGeometry>
        </mxCell>
        <mxCell id="9DNWAFKed83OJ6perg8Q-200" value="" style="rounded=1;whiteSpace=wrap;html=1;" parent="1" vertex="1">
          <mxGeometry x="628" y="2168" width="26" height="102" as="geometry" />
        </mxCell>
        <mxCell id="9DNWAFKed83OJ6perg8Q-216" value="" style="rounded=1;whiteSpace=wrap;html=1;" parent="1" vertex="1">
          <mxGeometry x="627" y="2414" width="26" height="85" as="geometry" />
        </mxCell>
        <mxCell id="9DNWAFKed83OJ6perg8Q-237" value="" style="endArrow=none;dashed=1;html=1;dashPattern=1 3;strokeWidth=2;rounded=0;fontSize=12;startSize=8;endSize=8;curved=1;entryX=0.545;entryY=0.992;entryDx=0;entryDy=0;entryPerimeter=0;" parent="1" edge="1">
          <mxGeometry width="50" height="50" relative="1" as="geometry">
            <mxPoint x="-201" y="2610" as="sourcePoint" />
            <mxPoint x="-200.10000000000002" y="2209.12" as="targetPoint" />
          </mxGeometry>
        </mxCell>
        <mxCell id="9DNWAFKed83OJ6perg8Q-243" value="alt" style="shape=umlFrame;whiteSpace=wrap;html=1;pointerEvents=0;recursiveResize=0;container=1;collapsible=0;width=60;height=30;" parent="1" vertex="1">
          <mxGeometry x="-350" y="1839" width="1550" height="1491" as="geometry" />
        </mxCell>
        <mxCell id="9DNWAFKed83OJ6perg8Q-244" value="[채팅 방 생성]" style="text;html=1;align=center;verticalAlign=middle;whiteSpace=wrap;rounded=0;fontSize=16;" parent="9DNWAFKed83OJ6perg8Q-243" vertex="1">
          <mxGeometry x="14" y="38" width="100" height="30" as="geometry" />
        </mxCell>
        <mxCell id="9DNWAFKed83OJ6perg8Q-245" value="" style="endArrow=classic;html=1;rounded=0;fontSize=12;startSize=8;endSize=8;curved=1;entryX=0;entryY=0.22;entryDx=0;entryDy=0;entryPerimeter=0;exitX=1.023;exitY=0.106;exitDx=0;exitDy=0;exitPerimeter=0;" parent="9DNWAFKed83OJ6perg8Q-243" edge="1">
          <mxGeometry width="50" height="50" relative="1" as="geometry">
            <mxPoint x="160.00000000000006" y="81" as="sourcePoint" />
            <mxPoint x="415.31" y="81.18000000000006" as="targetPoint" />
          </mxGeometry>
        </mxCell>
        <mxCell id="9DNWAFKed83OJ6perg8Q-246" value="" style="endArrow=classic;html=1;rounded=0;fontSize=12;startSize=8;endSize=8;curved=1;entryX=0.11;entryY=0.159;entryDx=0;entryDy=0;entryPerimeter=0;exitX=1.023;exitY=0.106;exitDx=0;exitDy=0;exitPerimeter=0;" parent="9DNWAFKed83OJ6perg8Q-243" edge="1">
          <mxGeometry width="50" height="50" relative="1" as="geometry">
            <mxPoint x="444.00000000000006" y="120" as="sourcePoint" />
            <mxPoint x="1259.8600000000001" y="119.93399999999974" as="targetPoint" />
          </mxGeometry>
        </mxCell>
        <UserObject label="채팅 방 생성 페이지 요청" placeholders="1" name="Variable" id="9DNWAFKed83OJ6perg8Q-247">
          <mxCell style="text;html=1;strokeColor=none;fillColor=none;align=center;verticalAlign=middle;whiteSpace=wrap;overflow=hidden;" parent="9DNWAFKed83OJ6perg8Q-243" vertex="1">
            <mxGeometry x="450" y="83" width="146" height="32" as="geometry" />
          </mxCell>
        </UserObject>
        <UserObject label="채팅 방 생성 페이지를 응답으로 반환" placeholders="1" name="Variable" id="9DNWAFKed83OJ6perg8Q-248">
          <mxCell style="text;html=1;strokeColor=none;fillColor=none;align=center;verticalAlign=middle;whiteSpace=wrap;overflow=hidden;" parent="9DNWAFKed83OJ6perg8Q-243" vertex="1">
            <mxGeometry x="1056" y="139" width="200" height="19" as="geometry" />
          </mxCell>
        </UserObject>
        <mxCell id="9DNWAFKed83OJ6perg8Q-249" value="" style="endArrow=classic;html=1;rounded=0;fontSize=12;startSize=8;endSize=8;curved=1;entryX=-0.09;entryY=0.042;entryDx=0;entryDy=0;entryPerimeter=0;exitX=1.023;exitY=0.106;exitDx=0;exitDy=0;exitPerimeter=0;" parent="9DNWAFKed83OJ6perg8Q-243" edge="1">
          <mxGeometry width="50" height="50" relative="1" as="geometry">
            <mxPoint x="160.00000000000006" y="281" as="sourcePoint" />
            <mxPoint x="412.6600000000001" y="280.654" as="targetPoint" />
          </mxGeometry>
        </mxCell>
        <UserObject label="설정한 방 제목과 최대 인원수로&lt;div&gt;채팅방 생성 요청.&lt;/div&gt;" placeholders="1" name="Variable" id="9DNWAFKed83OJ6perg8Q-250">
          <mxCell style="text;html=1;strokeColor=none;fillColor=none;align=center;verticalAlign=middle;whiteSpace=wrap;overflow=hidden;" parent="9DNWAFKed83OJ6perg8Q-243" vertex="1">
            <mxGeometry x="183" y="242" width="220" height="32" as="geometry" />
          </mxCell>
        </UserObject>
        <mxCell id="9DNWAFKed83OJ6perg8Q-251" value="" style="endArrow=classic;html=1;rounded=0;fontSize=12;startSize=8;endSize=8;curved=1;exitX=1.098;exitY=0.456;exitDx=0;exitDy=0;exitPerimeter=0;entryX=-0.038;entryY=0.117;entryDx=0;entryDy=0;entryPerimeter=0;" parent="9DNWAFKed83OJ6perg8Q-243" edge="1">
          <mxGeometry width="50" height="50" relative="1" as="geometry">
            <mxPoint x="444.998" y="309.2399999999998" as="sourcePoint" />
            <mxPoint x="695.462" y="308.92999999999984" as="targetPoint" />
          </mxGeometry>
        </mxCell>
        <UserObject label="채팅방 생성 요청을 처리하는&lt;div&gt;서비스 빈으로 분기&lt;/div&gt;" placeholders="1" name="Variable" id="9DNWAFKed83OJ6perg8Q-252">
          <mxCell style="text;html=1;strokeColor=none;fillColor=none;align=center;verticalAlign=middle;whiteSpace=wrap;overflow=hidden;" parent="9DNWAFKed83OJ6perg8Q-243" vertex="1">
            <mxGeometry x="459.95" y="273" width="210" height="32" as="geometry" />
          </mxCell>
        </UserObject>
        <mxCell id="9DNWAFKed83OJ6perg8Q-253" value="" style="endArrow=classic;html=1;rounded=0;fontSize=12;startSize=8;endSize=8;curved=1;exitX=1.098;exitY=0.456;exitDx=0;exitDy=0;exitPerimeter=0;entryX=-0.07;entryY=0.142;entryDx=0;entryDy=0;entryPerimeter=0;" parent="9DNWAFKed83OJ6perg8Q-243" edge="1">
          <mxGeometry width="50" height="50" relative="1" as="geometry">
            <mxPoint x="722.4480000000001" y="347.30999999999995" as="sourcePoint" />
            <mxPoint x="976.1800000000001" y="346.72000000000025" as="targetPoint" />
          </mxGeometry>
        </mxCell>
        <UserObject label="요청된 정보를 사용하여 레포지토리 사용한&lt;div&gt;채팅방 생성 작업 요청&lt;/div&gt;" placeholders="1" name="Variable" id="9DNWAFKed83OJ6perg8Q-254">
          <mxCell style="text;html=1;strokeColor=none;fillColor=none;align=center;verticalAlign=middle;whiteSpace=wrap;overflow=hidden;" parent="9DNWAFKed83OJ6perg8Q-243" vertex="1">
            <mxGeometry x="731.91" y="310" width="238.09" height="32" as="geometry" />
          </mxCell>
        </UserObject>
        <mxCell id="9DNWAFKed83OJ6perg8Q-255" value="" style="endArrow=classic;html=1;rounded=0;fontSize=12;startSize=8;endSize=8;curved=0;entryX=1.035;entryY=0.432;entryDx=0;entryDy=0;entryPerimeter=0;" parent="9DNWAFKed83OJ6perg8Q-243" edge="1">
          <mxGeometry width="50" height="50" relative="1" as="geometry">
            <mxPoint x="161" y="181" as="sourcePoint" />
            <mxPoint x="160.70000000000005" y="211.07999999999993" as="targetPoint" />
            <Array as="points">
              <mxPoint x="190" y="181" />
              <mxPoint x="190" y="211" />
            </Array>
          </mxGeometry>
        </mxCell>
        <UserObject label="정해진 인원수 범위 내&lt;div&gt;최대 방 수용 인원수 설정&lt;/div&gt;" placeholders="1" name="Variable" id="9DNWAFKed83OJ6perg8Q-256">
          <mxCell style="text;html=1;strokeColor=none;fillColor=none;align=center;verticalAlign=middle;whiteSpace=wrap;overflow=hidden;" parent="9DNWAFKed83OJ6perg8Q-243" vertex="1">
            <mxGeometry x="195" y="181" width="180" height="32" as="geometry" />
          </mxCell>
        </UserObject>
        <mxCell id="-QqJvvBWoMbALO441hwc-31" value="" style="endArrow=classic;html=1;rounded=0;fontSize=12;startSize=8;endSize=8;curved=1;dashed=1;entryX=1.121;entryY=0.351;entryDx=0;entryDy=0;entryPerimeter=0;" parent="9DNWAFKed83OJ6perg8Q-243" edge="1">
          <mxGeometry width="50" height="50" relative="1" as="geometry">
            <mxPoint x="693" y="440" as="sourcePoint" />
            <mxPoint x="443.14599999999973" y="440.0369999999998" as="targetPoint" />
          </mxGeometry>
        </mxCell>
        <mxCell id="-QqJvvBWoMbALO441hwc-37" value="" style="endArrow=classic;html=1;rounded=0;fontSize=12;startSize=8;endSize=8;curved=0;entryX=1.001;entryY=0.454;entryDx=0;entryDy=0;entryPerimeter=0;" parent="9DNWAFKed83OJ6perg8Q-243" edge="1">
          <mxGeometry width="50" height="50" relative="1" as="geometry">
            <mxPoint x="1003" y="610" as="sourcePoint" />
            <mxPoint x="1003.0260000000003" y="634.6399999999999" as="targetPoint" />
            <Array as="points">
              <mxPoint x="1030" y="610" />
              <mxPoint x="1030" y="635" />
            </Array>
          </mxGeometry>
        </mxCell>
        <UserObject label="채팅 방 생성 DBMS 작업 수행" placeholders="1" name="Variable" id="-QqJvvBWoMbALO441hwc-28">
          <mxCell style="text;html=1;strokeColor=none;fillColor=none;align=center;verticalAlign=middle;whiteSpace=wrap;overflow=hidden;" parent="9DNWAFKed83OJ6perg8Q-243" vertex="1">
            <mxGeometry x="1043" y="363" width="178" height="32" as="geometry" />
          </mxCell>
        </UserObject>
        <UserObject label="생성된 채팅 방 번호를&amp;nbsp;&lt;span style=&quot;background-color: initial;&quot;&gt;작업 결과로 반환&lt;/span&gt;" placeholders="1" name="Variable" id="-QqJvvBWoMbALO441hwc-30">
          <mxCell style="text;html=1;strokeColor=none;fillColor=none;align=center;verticalAlign=middle;whiteSpace=wrap;overflow=hidden;" parent="9DNWAFKed83OJ6perg8Q-243" vertex="1">
            <mxGeometry x="742" y="387" width="220.14" height="34" as="geometry" />
          </mxCell>
        </UserObject>
        <UserObject label="작업 결과 반환" placeholders="1" name="Variable" id="-QqJvvBWoMbALO441hwc-32">
          <mxCell style="text;html=1;strokeColor=none;fillColor=none;align=center;verticalAlign=middle;whiteSpace=wrap;overflow=hidden;" parent="9DNWAFKed83OJ6perg8Q-243" vertex="1">
            <mxGeometry x="492.9999999999999" y="405" width="190.14" height="34" as="geometry" />
          </mxCell>
        </UserObject>
        <UserObject label="해당 채팅 방 번호 기준으로 수용 가능&lt;div&gt;여부 판단하는 서비스 빈으로 분기&lt;/div&gt;" placeholders="1" name="Variable" id="-QqJvvBWoMbALO441hwc-34">
          <mxCell style="text;html=1;strokeColor=none;fillColor=none;align=center;verticalAlign=middle;whiteSpace=wrap;overflow=hidden;" parent="9DNWAFKed83OJ6perg8Q-243" vertex="1">
            <mxGeometry x="448.95" y="530" width="237.62" height="49" as="geometry" />
          </mxCell>
        </UserObject>
        <UserObject label="&lt;div&gt;해당 채팅 방 번호를 적용하여&lt;/div&gt;&lt;div&gt;DBMS 내 채팅 방 수용 인원 조회&lt;/div&gt;" placeholders="1" name="Variable" id="-QqJvvBWoMbALO441hwc-36">
          <mxCell style="text;html=1;strokeColor=none;fillColor=none;align=center;verticalAlign=middle;whiteSpace=wrap;overflow=hidden;" parent="9DNWAFKed83OJ6perg8Q-243" vertex="1">
            <mxGeometry x="761" y="561" width="190.14" height="34" as="geometry" />
          </mxCell>
        </UserObject>
        <UserObject label="DBMS&amp;nbsp; 내 채팅 방 수용 인원 확인 따른&lt;div&gt;참여 가능 여부 확인&amp;nbsp;&lt;/div&gt;" placeholders="1" name="Variable" id="-QqJvvBWoMbALO441hwc-48">
          <mxCell style="text;html=1;strokeColor=none;fillColor=none;align=center;verticalAlign=middle;whiteSpace=wrap;overflow=hidden;" parent="9DNWAFKed83OJ6perg8Q-243" vertex="1">
            <mxGeometry x="1039.44" y="608" width="214.56" height="32" as="geometry" />
          </mxCell>
        </UserObject>
        <mxCell id="-QqJvvBWoMbALO441hwc-96" value="alt" style="shape=umlFrame;whiteSpace=wrap;html=1;pointerEvents=0;recursiveResize=0;container=1;collapsible=0;width=50;height=30;" parent="9DNWAFKed83OJ6perg8Q-243" vertex="1">
          <mxGeometry x="790" y="669" width="464" height="236" as="geometry" />
        </mxCell>
        <UserObject label="[참여 가능 인원수]" placeholders="1" name="Variable" id="-QqJvvBWoMbALO441hwc-45">
          <mxCell style="text;html=1;strokeColor=none;fillColor=none;align=center;verticalAlign=middle;whiteSpace=wrap;overflow=hidden;fontSize=10;fontStyle=1" parent="-QqJvvBWoMbALO441hwc-96" vertex="1">
            <mxGeometry x="53" y="11" width="100" height="34" as="geometry" />
          </mxCell>
        </UserObject>
        <mxCell id="-QqJvvBWoMbALO441hwc-102" value="" style="endArrow=none;dashed=1;html=1;dashPattern=1 3;strokeWidth=2;rounded=0;exitX=0;exitY=0.57;exitDx=0;exitDy=0;exitPerimeter=0;entryX=1;entryY=0.495;entryDx=0;entryDy=0;entryPerimeter=0;" parent="-QqJvvBWoMbALO441hwc-96" target="-QqJvvBWoMbALO441hwc-96" edge="1">
          <mxGeometry width="50" height="50" relative="1" as="geometry">
            <mxPoint x="-3.197442310920451e-14" y="114.56000000000006" as="sourcePoint" />
            <mxPoint x="340.6800000000001" y="114.21900000000016" as="targetPoint" />
          </mxGeometry>
        </mxCell>
        <mxCell id="-QqJvvBWoMbALO441hwc-106" value="" style="rounded=1;whiteSpace=wrap;html=1;" parent="-QqJvvBWoMbALO441hwc-96" vertex="1">
          <mxGeometry x="187" y="130" width="26" height="88" as="geometry" />
        </mxCell>
        <UserObject label="[참여 불가능 인원수]" placeholders="1" name="Variable" id="-QqJvvBWoMbALO441hwc-109">
          <mxCell style="text;html=1;strokeColor=none;fillColor=none;align=center;verticalAlign=middle;whiteSpace=wrap;overflow=hidden;fontSize=10;fontStyle=1" parent="-QqJvvBWoMbALO441hwc-96" vertex="1">
            <mxGeometry x="51" y="118" width="100" height="34" as="geometry" />
          </mxCell>
        </UserObject>
        <mxCell id="-QqJvvBWoMbALO441hwc-119" value="" style="endArrow=classic;html=1;rounded=0;fontSize=12;startSize=8;endSize=8;curved=0;entryX=1.001;entryY=0.454;entryDx=0;entryDy=0;entryPerimeter=0;" parent="-QqJvvBWoMbALO441hwc-96" edge="1">
          <mxGeometry width="50" height="50" relative="1" as="geometry">
            <mxPoint x="213" y="29" as="sourcePoint" />
            <mxPoint x="213.0260000000003" y="53.63999999999987" as="targetPoint" />
            <Array as="points">
              <mxPoint x="240" y="29" />
              <mxPoint x="240" y="54" />
            </Array>
          </mxGeometry>
        </mxCell>
        <UserObject label="현재 채팅 방 내 참여 인원 수 증가" placeholders="1" name="Variable" id="-QqJvvBWoMbALO441hwc-120">
          <mxCell style="text;html=1;strokeColor=none;fillColor=none;align=center;verticalAlign=middle;whiteSpace=wrap;overflow=hidden;" parent="-QqJvvBWoMbALO441hwc-96" vertex="1">
            <mxGeometry x="240.00000000000006" y="24" width="214.56" height="32" as="geometry" />
          </mxCell>
        </UserObject>
        <UserObject label="참여 완료된 채팅 방의&lt;div&gt;번호 반환.&lt;/div&gt;" placeholders="1" name="Variable" id="PbIYio_T5DRapOlMZ3oK-1">
          <mxCell style="text;html=1;strokeColor=none;fillColor=none;align=center;verticalAlign=middle;whiteSpace=wrap;overflow=hidden;" vertex="1" parent="-QqJvvBWoMbALO441hwc-96">
            <mxGeometry x="3" y="56" width="151.56" height="32" as="geometry" />
          </mxCell>
        </UserObject>
        <UserObject label="참여 불가능 결과 값 반환." placeholders="1" name="Variable" id="PbIYio_T5DRapOlMZ3oK-4">
          <mxCell style="text;html=1;strokeColor=none;fillColor=none;align=center;verticalAlign=middle;whiteSpace=wrap;overflow=hidden;" vertex="1" parent="-QqJvvBWoMbALO441hwc-96">
            <mxGeometry x="1.4399999999999977" y="158" width="151.56" height="32" as="geometry" />
          </mxCell>
        </UserObject>
        <mxCell id="PbIYio_T5DRapOlMZ3oK-5" value="" style="endArrow=classic;html=1;rounded=0;fontSize=12;startSize=8;endSize=8;curved=0;entryX=1.001;entryY=0.454;entryDx=0;entryDy=0;entryPerimeter=0;" edge="1" parent="-QqJvvBWoMbALO441hwc-96">
          <mxGeometry width="50" height="50" relative="1" as="geometry">
            <mxPoint x="213" y="153" as="sourcePoint" />
            <mxPoint x="213.0260000000003" y="177.63999999999987" as="targetPoint" />
            <Array as="points">
              <mxPoint x="240" y="153" />
              <mxPoint x="240" y="178" />
            </Array>
          </mxGeometry>
        </mxCell>
        <UserObject label="현재 채팅 방 참여 불가능 결과 값 저장." placeholders="1" name="Variable" id="PbIYio_T5DRapOlMZ3oK-6">
          <mxCell style="text;html=1;strokeColor=none;fillColor=none;align=center;verticalAlign=middle;whiteSpace=wrap;overflow=hidden;" vertex="1" parent="-QqJvvBWoMbALO441hwc-96">
            <mxGeometry x="240" y="148" width="214.56" height="32" as="geometry" />
          </mxCell>
        </UserObject>
        <mxCell id="-QqJvvBWoMbALO441hwc-98" value="" style="endArrow=classic;html=1;rounded=0;fontSize=12;startSize=8;endSize=8;curved=0;entryX=0.012;entryY=0.097;entryDx=0;entryDy=0;entryPerimeter=0;" parent="9DNWAFKed83OJ6perg8Q-243" edge="1">
          <mxGeometry width="50" height="50" relative="1" as="geometry">
            <mxPoint x="976" y="646" as="sourcePoint" />
            <mxPoint x="977.3120000000004" y="686.185" as="targetPoint" />
            <Array as="points">
              <mxPoint x="950" y="646" />
              <mxPoint x="950" y="686" />
            </Array>
          </mxGeometry>
        </mxCell>
        <mxCell id="PbIYio_T5DRapOlMZ3oK-11" value="" style="endArrow=classic;html=1;rounded=0;fontSize=12;startSize=8;endSize=8;curved=1;entryX=1.039;entryY=0.663;entryDx=0;entryDy=0;dashed=1;entryPerimeter=0;exitX=-0.062;exitY=0.9;exitDx=0;exitDy=0;exitPerimeter=0;" edge="1" parent="9DNWAFKed83OJ6perg8Q-243">
          <mxGeometry width="50" height="50" relative="1" as="geometry">
            <mxPoint x="694.95" y="926" as="sourcePoint" />
            <mxPoint x="440.95" y="926" as="targetPoint" />
          </mxGeometry>
        </mxCell>
        <UserObject label="결과를 컨트롤러에 반환" placeholders="1" name="Variable" id="PbIYio_T5DRapOlMZ3oK-12">
          <mxCell style="text;html=1;strokeColor=none;fillColor=none;align=center;verticalAlign=middle;whiteSpace=wrap;overflow=hidden;" vertex="1" parent="9DNWAFKed83OJ6perg8Q-243">
            <mxGeometry x="490.17" y="893" width="151.56" height="32" as="geometry" />
          </mxCell>
        </UserObject>
        <mxCell id="PbIYio_T5DRapOlMZ3oK-21" value="" style="endArrow=classic;html=1;rounded=0;fontSize=12;startSize=8;endSize=8;curved=0;entryX=1.001;entryY=0.454;entryDx=0;entryDy=0;entryPerimeter=0;" edge="1" parent="9DNWAFKed83OJ6perg8Q-243">
          <mxGeometry width="50" height="50" relative="1" as="geometry">
            <mxPoint x="442.58000000000004" y="983" as="sourcePoint" />
            <mxPoint x="442.60600000000034" y="1007.6399999999999" as="targetPoint" />
            <Array as="points">
              <mxPoint x="469.58000000000004" y="983" />
              <mxPoint x="469.58000000000004" y="1008" />
            </Array>
          </mxGeometry>
        </mxCell>
        <UserObject label="반환된 결과를 확인" placeholders="1" name="Variable" id="PbIYio_T5DRapOlMZ3oK-22">
          <mxCell style="text;html=1;strokeColor=none;fillColor=none;align=center;verticalAlign=middle;whiteSpace=wrap;overflow=hidden;" vertex="1" parent="9DNWAFKed83OJ6perg8Q-243">
            <mxGeometry x="475" y="982" width="120" height="32" as="geometry" />
          </mxCell>
        </UserObject>
        <mxCell id="PbIYio_T5DRapOlMZ3oK-36" value="alt" style="shape=umlFrame;whiteSpace=wrap;html=1;pointerEvents=0;recursiveResize=0;container=1;collapsible=0;width=50;height=30;" vertex="1" parent="9DNWAFKed83OJ6perg8Q-243">
          <mxGeometry x="227" y="1056" width="1313" height="424" as="geometry" />
        </mxCell>
        <UserObject label="[참여 가능 인원수]" placeholders="1" name="Variable" id="PbIYio_T5DRapOlMZ3oK-37">
          <mxCell style="text;html=1;strokeColor=none;fillColor=none;align=center;verticalAlign=middle;whiteSpace=wrap;overflow=hidden;fontSize=10;fontStyle=1" vertex="1" parent="PbIYio_T5DRapOlMZ3oK-36">
            <mxGeometry x="53" y="11" width="100" height="34" as="geometry" />
          </mxCell>
        </UserObject>
        <UserObject label="[참여 불가능 인원수]" placeholders="1" name="Variable" id="PbIYio_T5DRapOlMZ3oK-40">
          <mxCell style="text;html=1;strokeColor=none;fillColor=none;align=center;verticalAlign=middle;whiteSpace=wrap;overflow=hidden;fontSize=10;fontStyle=1" vertex="1" parent="PbIYio_T5DRapOlMZ3oK-36">
            <mxGeometry x="51" y="233" width="100" height="34" as="geometry" />
          </mxCell>
        </UserObject>
        <UserObject label="해당 채팅 방 번호에 대한 페이지 요청" placeholders="1" name="Variable" id="PbIYio_T5DRapOlMZ3oK-42">
          <mxCell style="text;html=1;strokeColor=none;fillColor=none;align=center;verticalAlign=middle;whiteSpace=wrap;overflow=hidden;" vertex="1" parent="PbIYio_T5DRapOlMZ3oK-36">
            <mxGeometry x="223.00000000000006" y="39" width="214.56" height="32" as="geometry" />
          </mxCell>
        </UserObject>
        <UserObject label="현재 요청 방은 접속 할&amp;nbsp; 수 없다는 페이지 요청" placeholders="1" name="Variable" id="PbIYio_T5DRapOlMZ3oK-46">
          <mxCell style="text;html=1;strokeColor=none;fillColor=none;align=center;verticalAlign=middle;whiteSpace=wrap;overflow=hidden;" vertex="1" parent="PbIYio_T5DRapOlMZ3oK-36">
            <mxGeometry x="223" y="267" width="257" height="32" as="geometry" />
          </mxCell>
        </UserObject>
        <mxCell id="PbIYio_T5DRapOlMZ3oK-48" value="" style="rounded=1;whiteSpace=wrap;html=1;" vertex="1" parent="PbIYio_T5DRapOlMZ3oK-36">
          <mxGeometry x="187" y="11" width="26" height="88" as="geometry" />
        </mxCell>
        <mxCell id="PbIYio_T5DRapOlMZ3oK-52" value="" style="endArrow=classic;html=1;rounded=0;fontSize=12;startSize=8;endSize=8;curved=1;entryX=-0.014;entryY=0.106;entryDx=0;entryDy=0;entryPerimeter=0;exitX=1.023;exitY=0.106;exitDx=0;exitDy=0;exitPerimeter=0;" edge="1" parent="PbIYio_T5DRapOlMZ3oK-36">
          <mxGeometry width="50" height="50" relative="1" as="geometry">
            <mxPoint x="213" y="80.34999999999991" as="sourcePoint" />
            <mxPoint x="1028.6359999999995" y="80.03999999999996" as="targetPoint" />
          </mxGeometry>
        </mxCell>
        <mxCell id="PbIYio_T5DRapOlMZ3oK-75" value="" style="endArrow=classic;html=1;rounded=0;fontSize=12;startSize=8;endSize=8;curved=0;entryX=1.001;entryY=0.454;entryDx=0;entryDy=0;entryPerimeter=0;" edge="1" parent="PbIYio_T5DRapOlMZ3oK-36">
          <mxGeometry width="50" height="50" relative="1" as="geometry">
            <mxPoint x="1054" y="105" as="sourcePoint" />
            <mxPoint x="1054.0260000000003" y="129.63999999999987" as="targetPoint" />
            <Array as="points">
              <mxPoint x="1081" y="105" />
              <mxPoint x="1081" y="130" />
            </Array>
          </mxGeometry>
        </mxCell>
        <UserObject label="채팅 번호 따른 채팅 방 페이지 구성" placeholders="1" name="Variable" id="PbIYio_T5DRapOlMZ3oK-76">
          <mxCell style="text;html=1;strokeColor=none;fillColor=none;align=center;verticalAlign=middle;whiteSpace=wrap;overflow=hidden;" vertex="1" parent="PbIYio_T5DRapOlMZ3oK-36">
            <mxGeometry x="1081" y="101" width="214.56" height="32" as="geometry" />
          </mxCell>
        </UserObject>
        <mxCell id="PbIYio_T5DRapOlMZ3oK-77" value="" style="endArrow=classic;html=1;rounded=0;fontSize=12;startSize=8;endSize=8;curved=1;dashed=1;exitX=-0.062;exitY=0.9;exitDx=0;exitDy=0;exitPerimeter=0;entryX=1.122;entryY=0.817;entryDx=0;entryDy=0;entryPerimeter=0;" edge="1" parent="PbIYio_T5DRapOlMZ3oK-36">
          <mxGeometry width="50" height="50" relative="1" as="geometry">
            <mxPoint x="1026" y="150" as="sourcePoint" />
            <mxPoint x="-65.55999999999972" y="150.13999999999942" as="targetPoint" />
          </mxGeometry>
        </mxCell>
        <UserObject label="채팅 방 반환" placeholders="1" name="Variable" id="PbIYio_T5DRapOlMZ3oK-78">
          <mxCell style="text;html=1;strokeColor=none;fillColor=none;align=center;verticalAlign=middle;whiteSpace=wrap;overflow=hidden;" vertex="1" parent="PbIYio_T5DRapOlMZ3oK-36">
            <mxGeometry x="893" y="111" width="127" height="32" as="geometry" />
          </mxCell>
        </UserObject>
        <mxCell id="PbIYio_T5DRapOlMZ3oK-82" value="" style="endArrow=classic;html=1;rounded=0;fontSize=12;startSize=8;endSize=8;curved=0;entryX=1.001;entryY=0.454;entryDx=0;entryDy=0;entryPerimeter=0;" edge="1" parent="PbIYio_T5DRapOlMZ3oK-36">
          <mxGeometry width="50" height="50" relative="1" as="geometry">
            <mxPoint x="1054" y="319" as="sourcePoint" />
            <mxPoint x="1054.0260000000003" y="343.6399999999999" as="targetPoint" />
            <Array as="points">
              <mxPoint x="1081" y="319" />
              <mxPoint x="1081" y="344" />
            </Array>
          </mxGeometry>
        </mxCell>
        <UserObject label="참여 불가 알림 내용 포함한 페이지 구성" placeholders="1" name="Variable" id="PbIYio_T5DRapOlMZ3oK-83">
          <mxCell style="text;html=1;strokeColor=none;fillColor=none;align=center;verticalAlign=middle;whiteSpace=wrap;overflow=hidden;" vertex="1" parent="PbIYio_T5DRapOlMZ3oK-36">
            <mxGeometry x="1086" y="315" width="214.56" height="32" as="geometry" />
          </mxCell>
        </UserObject>
        <mxCell id="PbIYio_T5DRapOlMZ3oK-85" value="" style="endArrow=classic;html=1;rounded=0;fontSize=12;startSize=8;endSize=8;curved=1;dashed=1;exitX=-0.082;exitY=0.919;exitDx=0;exitDy=0;exitPerimeter=0;" edge="1" parent="PbIYio_T5DRapOlMZ3oK-36">
          <mxGeometry width="50" height="50" relative="1" as="geometry">
            <mxPoint x="1026.868" y="385.3609999999999" as="sourcePoint" />
            <mxPoint x="-64" y="385" as="targetPoint" />
          </mxGeometry>
        </mxCell>
        <UserObject label="해당 페이지 반환" placeholders="1" name="Variable" id="PbIYio_T5DRapOlMZ3oK-86">
          <mxCell style="text;html=1;strokeColor=none;fillColor=none;align=center;verticalAlign=middle;whiteSpace=wrap;overflow=hidden;" vertex="1" parent="PbIYio_T5DRapOlMZ3oK-36">
            <mxGeometry x="892.56" y="349" width="127" height="32" as="geometry" />
          </mxCell>
        </UserObject>
        <mxCell id="PbIYio_T5DRapOlMZ3oK-63" value="" style="endArrow=classic;html=1;rounded=0;fontSize=12;startSize=8;endSize=8;curved=1;entryX=-0.014;entryY=0.106;entryDx=0;entryDy=0;entryPerimeter=0;exitX=1.023;exitY=0.106;exitDx=0;exitDy=0;exitPerimeter=0;" edge="1" parent="9DNWAFKed83OJ6perg8Q-243">
          <mxGeometry width="50" height="50" relative="1" as="geometry">
            <mxPoint x="440.36000000000007" y="1364.31" as="sourcePoint" />
            <mxPoint x="1255.9959999999996" y="1364" as="targetPoint" />
          </mxGeometry>
        </mxCell>
        <mxCell id="PbIYio_T5DRapOlMZ3oK-66" value="" style="rounded=1;whiteSpace=wrap;html=1;" vertex="1" parent="9DNWAFKed83OJ6perg8Q-243">
          <mxGeometry x="1256" y="1336" width="26" height="119" as="geometry" />
        </mxCell>
        <mxCell id="PbIYio_T5DRapOlMZ3oK-88" value="" style="rounded=1;whiteSpace=wrap;html=1;" vertex="1" parent="9DNWAFKed83OJ6perg8Q-243">
          <mxGeometry x="415" y="540" width="26" height="508" as="geometry" />
        </mxCell>
        <mxCell id="PbIYio_T5DRapOlMZ3oK-91" value="" style="endArrow=classic;html=1;rounded=0;fontSize=12;startSize=8;endSize=8;curved=1;dashed=1;entryX=1.121;entryY=0.351;entryDx=0;entryDy=0;entryPerimeter=0;" edge="1" parent="9DNWAFKed83OJ6perg8Q-243">
          <mxGeometry width="50" height="50" relative="1" as="geometry">
            <mxPoint x="415" y="456" as="sourcePoint" />
            <mxPoint x="165.14599999999973" y="456.0369999999998" as="targetPoint" />
          </mxGeometry>
        </mxCell>
        <UserObject label="채팅 페이지 반환" placeholders="1" name="Variable" id="PbIYio_T5DRapOlMZ3oK-92">
          <mxCell style="text;html=1;strokeColor=none;fillColor=none;align=center;verticalAlign=middle;whiteSpace=wrap;overflow=hidden;" vertex="1" parent="9DNWAFKed83OJ6perg8Q-243">
            <mxGeometry x="214.9999999999999" y="421" width="190.14" height="34" as="geometry" />
          </mxCell>
        </UserObject>
        <mxCell id="PbIYio_T5DRapOlMZ3oK-94" value="[채팅 방 입장 요청]" style="text;html=1;align=center;verticalAlign=middle;whiteSpace=wrap;rounded=0;fontSize=16;" vertex="1" parent="9DNWAFKed83OJ6perg8Q-243">
          <mxGeometry x="-2" y="529" width="146" height="30" as="geometry" />
        </mxCell>
        <UserObject label="채팅 방 번호를 기준으로 채팅 방 입장 요청" placeholders="1" name="Variable" id="PbIYio_T5DRapOlMZ3oK-95">
          <mxCell style="text;html=1;strokeColor=none;fillColor=none;align=center;verticalAlign=middle;whiteSpace=wrap;overflow=hidden;" vertex="1" parent="9DNWAFKed83OJ6perg8Q-243">
            <mxGeometry x="174.19" y="522" width="237.62" height="49" as="geometry" />
          </mxCell>
        </UserObject>
        <mxCell id="PbIYio_T5DRapOlMZ3oK-96" value="" style="endArrow=classic;html=1;rounded=0;fontSize=12;startSize=8;endSize=8;curved=1;exitX=0.962;exitY=0.687;exitDx=0;exitDy=0;exitPerimeter=0;entryX=-0.028;entryY=0.37;entryDx=0;entryDy=0;entryPerimeter=0;" edge="1" parent="9DNWAFKed83OJ6perg8Q-243">
          <mxGeometry width="50" height="50" relative="1" as="geometry">
            <mxPoint x="162" y="561" as="sourcePoint" />
            <mxPoint x="415" y="561" as="targetPoint" />
          </mxGeometry>
        </mxCell>
        <mxCell id="9DNWAFKed83OJ6perg8Q-289" value="" style="rounded=1;whiteSpace=wrap;html=1;" parent="1" vertex="1">
          <mxGeometry x="346.45" y="2119" width="26" height="181" as="geometry" />
        </mxCell>
        <mxCell id="9DNWAFKed83OJ6perg8Q-295" value="" style="rounded=1;whiteSpace=wrap;html=1;" parent="1" vertex="1">
          <mxGeometry x="-210" y="1850" width="20" height="1470" as="geometry" />
        </mxCell>
        <mxCell id="9DNWAFKed83OJ6perg8Q-368" value="[채팅 방 페이지]" style="text;html=1;align=center;verticalAlign=middle;whiteSpace=wrap;rounded=0;fontSize=50;" parent="1" vertex="1">
          <mxGeometry x="-119.94999999999999" y="3470" width="830" height="47" as="geometry" />
        </mxCell>
        <mxCell id="9DNWAFKed83OJ6perg8Q-369" value="Client" style="rounded=1;whiteSpace=wrap;html=1;" parent="1" vertex="1">
          <mxGeometry x="-184.95" y="3568" width="110" height="50" as="geometry" />
        </mxCell>
        <mxCell id="9DNWAFKed83OJ6perg8Q-370" value="Service" style="rounded=1;whiteSpace=wrap;html=1;" parent="1" vertex="1">
          <mxGeometry x="379.04999999999995" y="3568" width="100" height="50" as="geometry" />
        </mxCell>
        <mxCell id="9DNWAFKed83OJ6perg8Q-371" value="DBMS" style="rounded=1;whiteSpace=wrap;html=1;" parent="1" vertex="1">
          <mxGeometry x="659.0500000000001" y="3568" width="100" height="50" as="geometry" />
        </mxCell>
        <mxCell id="9DNWAFKed83OJ6perg8Q-372" value="Controller" style="rounded=1;whiteSpace=wrap;html=1;" parent="1" vertex="1">
          <mxGeometry x="101.05" y="3568" width="100" height="50" as="geometry" />
        </mxCell>
        <mxCell id="9DNWAFKed83OJ6perg8Q-374" value="" style="endArrow=none;dashed=1;html=1;dashPattern=1 3;strokeWidth=2;rounded=0;fontSize=12;startSize=8;endSize=8;curved=1;entryX=0.5;entryY=1;entryDx=0;entryDy=0;" parent="1" source="9DNWAFKed83OJ6perg8Q-379" target="9DNWAFKed83OJ6perg8Q-369" edge="1">
          <mxGeometry width="50" height="50" relative="1" as="geometry">
            <mxPoint x="-128.95" y="4454" as="sourcePoint" />
            <mxPoint x="-79.95" y="3758" as="targetPoint" />
          </mxGeometry>
        </mxCell>
        <mxCell id="9DNWAFKed83OJ6perg8Q-375" value="" style="endArrow=none;dashed=1;html=1;dashPattern=1 3;strokeWidth=2;rounded=0;fontSize=12;startSize=8;endSize=8;curved=1;" parent="1" edge="1">
          <mxGeometry width="50" height="50" relative="1" as="geometry">
            <mxPoint x="431.04441124780305" y="3848" as="sourcePoint" />
            <mxPoint x="430.42999999999995" y="3618" as="targetPoint" />
          </mxGeometry>
        </mxCell>
        <mxCell id="9DNWAFKed83OJ6perg8Q-377" value="" style="endArrow=none;dashed=1;html=1;dashPattern=1 3;strokeWidth=2;rounded=0;fontSize=12;startSize=8;endSize=8;curved=1;entryX=0.5;entryY=1;entryDx=0;entryDy=0;" parent="1" edge="1">
          <mxGeometry width="50" height="50" relative="1" as="geometry">
            <mxPoint x="710.9526548672569" y="4118" as="sourcePoint" />
            <mxPoint x="711.0500000000001" y="3618" as="targetPoint" />
          </mxGeometry>
        </mxCell>
        <mxCell id="9DNWAFKed83OJ6perg8Q-380" value="" style="endArrow=none;dashed=1;html=1;dashPattern=1 3;strokeWidth=2;rounded=0;fontSize=12;startSize=8;endSize=8;curved=1;entryX=0.5;entryY=1;entryDx=0;entryDy=0;" parent="1" target="9DNWAFKed83OJ6perg8Q-379" edge="1">
          <mxGeometry width="50" height="50" relative="1" as="geometry">
            <mxPoint x="-128.95" y="4454" as="sourcePoint" />
            <mxPoint x="-129.95" y="3618" as="targetPoint" />
          </mxGeometry>
        </mxCell>
        <mxCell id="9DNWAFKed83OJ6perg8Q-379" value="" style="rounded=1;whiteSpace=wrap;html=1;" parent="1" vertex="1">
          <mxGeometry x="-139.95" y="3646" width="20" height="772" as="geometry" />
        </mxCell>
        <mxCell id="9DNWAFKed83OJ6perg8Q-382" value="" style="endArrow=none;dashed=1;html=1;dashPattern=1 3;strokeWidth=2;rounded=0;fontSize=12;startSize=8;endSize=8;curved=1;entryX=0.5;entryY=1;entryDx=0;entryDy=0;" parent="1" edge="1">
          <mxGeometry width="50" height="50" relative="1" as="geometry">
            <mxPoint x="151.05" y="4388" as="sourcePoint" />
            <mxPoint x="151.05" y="4321" as="targetPoint" />
          </mxGeometry>
        </mxCell>
        <mxCell id="9DNWAFKed83OJ6perg8Q-383" value="" style="endArrow=classic;html=1;rounded=0;fontSize=12;startSize=8;endSize=8;curved=1;exitX=1.023;exitY=0.106;exitDx=0;exitDy=0;exitPerimeter=0;" parent="1" edge="1">
          <mxGeometry width="50" height="50" relative="1" as="geometry">
            <mxPoint x="-118.46999999999994" y="3705" as="sourcePoint" />
            <mxPoint x="141.05" y="3705" as="targetPoint" />
          </mxGeometry>
        </mxCell>
        <UserObject label="사용자의 닉네임과 채팅 입력 내용이&lt;div&gt;요청 데이터로 전송.&lt;/div&gt;" placeholders="1" name="Variable" id="9DNWAFKed83OJ6perg8Q-384">
          <mxCell style="text;html=1;strokeColor=none;fillColor=none;align=center;verticalAlign=middle;whiteSpace=wrap;overflow=hidden;" parent="1" vertex="1">
            <mxGeometry x="-95.47000000000003" y="3668" width="220" height="32" as="geometry" />
          </mxCell>
        </UserObject>
        <mxCell id="9DNWAFKed83OJ6perg8Q-390" value="" style="endArrow=none;dashed=1;html=1;dashPattern=1 3;strokeWidth=2;rounded=0;fontSize=12;startSize=8;endSize=8;curved=1;entryX=0.5;entryY=1;entryDx=0;entryDy=0;exitX=0.5;exitY=0;exitDx=0;exitDy=0;" parent="1" target="9DNWAFKed83OJ6perg8Q-372" edge="1">
          <mxGeometry width="50" height="50" relative="1" as="geometry">
            <mxPoint x="151.05" y="3677" as="sourcePoint" />
            <mxPoint x="161.05" y="3628" as="targetPoint" />
          </mxGeometry>
        </mxCell>
        <mxCell id="9DNWAFKed83OJ6perg8Q-391" value="" style="endArrow=classic;html=1;rounded=0;fontSize=12;startSize=8;endSize=8;curved=1;exitX=1.023;exitY=0.106;exitDx=0;exitDy=0;exitPerimeter=0;entryX=0;entryY=0.25;entryDx=0;entryDy=0;" parent="1" edge="1">
          <mxGeometry width="50" height="50" relative="1" as="geometry">
            <mxPoint x="161.05000000000004" y="3734" as="sourcePoint" />
            <mxPoint x="421.04999999999995" y="3733" as="targetPoint" />
          </mxGeometry>
        </mxCell>
        <UserObject label="요청된 채팅 데이터를 채팅 처리 담당&lt;div&gt;서비스 빈으로 분기.&lt;/div&gt;" placeholders="1" name="Variable" id="9DNWAFKed83OJ6perg8Q-392">
          <mxCell style="text;html=1;strokeColor=none;fillColor=none;align=center;verticalAlign=middle;whiteSpace=wrap;overflow=hidden;" parent="1" vertex="1">
            <mxGeometry x="178.04999999999998" y="3697" width="220" height="32" as="geometry" />
          </mxCell>
        </UserObject>
        <mxCell id="9DNWAFKed83OJ6perg8Q-395" value="" style="endArrow=classic;html=1;rounded=0;fontSize=12;startSize=8;endSize=8;curved=0;exitX=0.988;exitY=0.302;exitDx=0;exitDy=0;entryX=1.043;entryY=0.479;entryDx=0;entryDy=0;entryPerimeter=0;exitPerimeter=0;" parent="1" edge="1">
          <mxGeometry width="50" height="50" relative="1" as="geometry">
            <mxPoint x="441.04999999999995" y="3749" as="sourcePoint" />
            <mxPoint x="442.04999999999995" y="3781" as="targetPoint" />
            <Array as="points">
              <mxPoint x="471.04999999999995" y="3749" />
              <mxPoint x="471.04999999999995" y="3781" />
            </Array>
          </mxGeometry>
        </mxCell>
        <UserObject label="이전 채팅 개수와 새로운 채팅 요청을&lt;div&gt;합친 총 개수가 설정치 초과 여부 확인.&lt;/div&gt;" placeholders="1" name="Variable" id="9DNWAFKed83OJ6perg8Q-396">
          <mxCell style="text;html=1;strokeColor=none;fillColor=none;align=center;verticalAlign=middle;whiteSpace=wrap;overflow=hidden;" parent="1" vertex="1">
            <mxGeometry x="471.04999999999995" y="3750" width="220" height="32" as="geometry" />
          </mxCell>
        </UserObject>
        <mxCell id="9DNWAFKed83OJ6perg8Q-397" value="" style="rounded=1;whiteSpace=wrap;html=1;" parent="1" vertex="1">
          <mxGeometry x="421.04999999999995" y="3709" width="20" height="109" as="geometry" />
        </mxCell>
        <mxCell id="9DNWAFKed83OJ6perg8Q-398" value="alt" style="shape=umlFrame;whiteSpace=wrap;html=1;pointerEvents=0;recursiveResize=0;container=1;collapsible=0;width=101;height=30;" parent="1" vertex="1">
          <mxGeometry x="298.04999999999995" y="3825" width="453" height="253" as="geometry" />
        </mxCell>
        <mxCell id="9DNWAFKed83OJ6perg8Q-402" value="" style="endArrow=classic;html=1;rounded=0;fontSize=12;startSize=8;endSize=8;curved=0;exitX=0.988;exitY=0.302;exitDx=0;exitDy=0;entryX=1.048;entryY=0.177;entryDx=0;entryDy=0;entryPerimeter=0;exitPerimeter=0;" parent="9DNWAFKed83OJ6perg8Q-398" edge="1">
          <mxGeometry width="50" height="50" relative="1" as="geometry">
            <mxPoint x="143.14" y="-27" as="sourcePoint" />
            <mxPoint x="144.0999999999999" y="42.293000000000575" as="targetPoint" />
            <Array as="points">
              <mxPoint x="163" y="-27" />
              <mxPoint x="163" y="42" />
            </Array>
          </mxGeometry>
        </mxCell>
        <mxCell id="9DNWAFKed83OJ6perg8Q-403" value="" style="endArrow=classic;html=1;rounded=0;fontSize=12;startSize=8;endSize=8;curved=0;exitX=0.988;exitY=0.302;exitDx=0;exitDy=0;entryX=1.043;entryY=0.479;entryDx=0;entryDy=0;entryPerimeter=0;exitPerimeter=0;" parent="9DNWAFKed83OJ6perg8Q-398" edge="1">
          <mxGeometry width="50" height="50" relative="1" as="geometry">
            <mxPoint x="143" y="55" as="sourcePoint" />
            <mxPoint x="144" y="87" as="targetPoint" />
            <Array as="points">
              <mxPoint x="173" y="55" />
              <mxPoint x="173" y="87" />
            </Array>
          </mxGeometry>
        </mxCell>
        <UserObject label="가장 오래된 채팅 데이터 삭제 후 새로운 채팅 데이터 저장," placeholders="1" name="Variable" id="9DNWAFKed83OJ6perg8Q-404">
          <mxCell style="text;html=1;strokeColor=none;fillColor=none;align=center;verticalAlign=middle;whiteSpace=wrap;overflow=hidden;" parent="9DNWAFKed83OJ6perg8Q-398" vertex="1">
            <mxGeometry x="183" y="59" width="220" height="32" as="geometry" />
          </mxCell>
        </UserObject>
        <UserObject label="[개수 미 초과 시]" placeholders="1" name="Variable" id="9DNWAFKed83OJ6perg8Q-413">
          <mxCell style="text;html=1;strokeColor=none;fillColor=none;align=center;verticalAlign=middle;whiteSpace=wrap;overflow=hidden;" parent="9DNWAFKed83OJ6perg8Q-398" vertex="1">
            <mxGeometry x="-2.5600000000000023" y="143" width="104.56" height="32" as="geometry" />
          </mxCell>
        </UserObject>
        <mxCell id="9DNWAFKed83OJ6perg8Q-415" value="" style="endArrow=classic;html=1;rounded=0;fontSize=12;startSize=8;endSize=8;curved=0;exitX=0.988;exitY=0.302;exitDx=0;exitDy=0;entryX=0.926;entryY=0.594;entryDx=0;entryDy=0;entryPerimeter=0;exitPerimeter=0;" parent="9DNWAFKed83OJ6perg8Q-398" target="9DNWAFKed83OJ6perg8Q-418" edge="1">
          <mxGeometry width="50" height="50" relative="1" as="geometry">
            <mxPoint x="143" y="178" as="sourcePoint" />
            <mxPoint x="144" y="210" as="targetPoint" />
            <Array as="points">
              <mxPoint x="173" y="178" />
              <mxPoint x="173" y="202" />
            </Array>
          </mxGeometry>
        </mxCell>
        <UserObject label="새로운 채팅 요청 데이터를 저장," placeholders="1" name="Variable" id="9DNWAFKed83OJ6perg8Q-416">
          <mxCell style="text;html=1;strokeColor=none;fillColor=none;align=center;verticalAlign=middle;whiteSpace=wrap;overflow=hidden;" parent="9DNWAFKed83OJ6perg8Q-398" vertex="1">
            <mxGeometry x="175" y="176" width="197" height="32" as="geometry" />
          </mxCell>
        </UserObject>
        <mxCell id="9DNWAFKed83OJ6perg8Q-401" value="" style="endArrow=none;dashed=1;html=1;dashPattern=1 3;strokeWidth=2;rounded=0;fontSize=12;startSize=8;endSize=8;curved=1;entryX=0.5;entryY=1;entryDx=0;entryDy=0;" parent="1" edge="1">
          <mxGeometry width="50" height="50" relative="1" as="geometry">
            <mxPoint x="432.2871428571427" y="4098" as="sourcePoint" />
            <mxPoint x="431.1899999999998" y="3938" as="targetPoint" />
          </mxGeometry>
        </mxCell>
        <mxCell id="9DNWAFKed83OJ6perg8Q-406" value="" style="endArrow=classic;html=1;rounded=0;fontSize=12;startSize=8;endSize=8;curved=0;exitX=1.02;exitY=0.815;exitDx=0;exitDy=0;entryX=1.048;entryY=0.177;entryDx=0;entryDy=0;entryPerimeter=0;exitPerimeter=0;" parent="1" source="9DNWAFKed83OJ6perg8Q-397" edge="1">
          <mxGeometry width="50" height="50" relative="1" as="geometry">
            <mxPoint x="441.18999999999994" y="3918" as="sourcePoint" />
            <mxPoint x="442.14999999999986" y="3987.2930000000006" as="targetPoint" />
            <Array as="points">
              <mxPoint x="461.04999999999995" y="3798" />
              <mxPoint x="461.04999999999995" y="3987" />
            </Array>
          </mxGeometry>
        </mxCell>
        <mxCell id="9DNWAFKed83OJ6perg8Q-408" value="" style="rounded=1;whiteSpace=wrap;html=1;" parent="1" vertex="1">
          <mxGeometry x="421.18999999999994" y="3848" width="20" height="90" as="geometry" />
        </mxCell>
        <mxCell id="9DNWAFKed83OJ6perg8Q-417" value="" style="rounded=1;whiteSpace=wrap;html=1;" parent="1" vertex="1">
          <mxGeometry x="141.05" y="3677" width="20" height="681" as="geometry" />
        </mxCell>
        <mxCell id="9DNWAFKed83OJ6perg8Q-418" value="" style="rounded=1;whiteSpace=wrap;html=1;" parent="1" vertex="1">
          <mxGeometry x="421.18999999999994" y="3968" width="20" height="100" as="geometry" />
        </mxCell>
        <mxCell id="9DNWAFKed83OJ6perg8Q-420" value="" style="endArrow=none;dashed=1;html=1;dashPattern=1 3;strokeWidth=2;rounded=0;fontSize=12;startSize=8;endSize=8;curved=1;entryX=1.001;entryY=0.516;entryDx=0;entryDy=0;entryPerimeter=0;exitX=0.001;exitY=0.511;exitDx=0;exitDy=0;exitPerimeter=0;" parent="1" edge="1">
          <mxGeometry width="50" height="50" relative="1" as="geometry">
            <mxPoint x="298.04999999999995" y="3954" as="sourcePoint" />
            <mxPoint x="751.0500000000001" y="3956" as="targetPoint" />
          </mxGeometry>
        </mxCell>
        <mxCell id="9DNWAFKed83OJ6perg8Q-423" value="" style="endArrow=none;dashed=1;html=1;dashPattern=1 3;strokeWidth=2;rounded=0;fontSize=12;startSize=8;endSize=8;curved=1;entryX=0.5;entryY=1;entryDx=0;entryDy=0;" parent="1" edge="1">
          <mxGeometry width="50" height="50" relative="1" as="geometry">
            <mxPoint x="431.04999999999995" y="4348" as="sourcePoint" />
            <mxPoint x="432.6299999999999" y="4198" as="targetPoint" />
          </mxGeometry>
        </mxCell>
        <mxCell id="9DNWAFKed83OJ6perg8Q-425" value="" style="endArrow=classic;html=1;rounded=0;fontSize=12;startSize=8;endSize=8;curved=0;entryX=-0.016;entryY=0.167;entryDx=0;entryDy=0;entryPerimeter=0;" parent="1" edge="1">
          <mxGeometry width="50" height="50" relative="1" as="geometry">
            <mxPoint x="421.04999999999995" y="3928" as="sourcePoint" />
            <mxPoint x="422.30999999999983" y="4114.7" as="targetPoint" />
            <Array as="points">
              <mxPoint x="401.04999999999995" y="3928" />
              <mxPoint x="401.04999999999995" y="4115" />
            </Array>
          </mxGeometry>
        </mxCell>
        <mxCell id="9DNWAFKed83OJ6perg8Q-426" value="" style="endArrow=classic;html=1;rounded=0;fontSize=12;startSize=8;endSize=8;curved=0;entryX=0.022;entryY=0.172;entryDx=0;entryDy=0;entryPerimeter=0;" parent="1" edge="1">
          <mxGeometry width="50" height="50" relative="1" as="geometry">
            <mxPoint x="421.18999999999994" y="4055" as="sourcePoint" />
            <mxPoint x="423.0699999999998" y="4115.2" as="targetPoint" />
            <Array as="points">
              <mxPoint x="401.18999999999994" y="4055" />
              <mxPoint x="401.04999999999995" y="4115" />
            </Array>
          </mxGeometry>
        </mxCell>
        <mxCell id="9DNWAFKed83OJ6perg8Q-429" value="" style="endArrow=none;dashed=1;html=1;dashPattern=1 3;strokeWidth=2;rounded=0;fontSize=12;startSize=8;endSize=8;curved=1;entryX=0.5;entryY=1;entryDx=0;entryDy=0;" parent="1" edge="1">
          <mxGeometry width="50" height="50" relative="1" as="geometry">
            <mxPoint x="712.0500000000001" y="4444" as="sourcePoint" />
            <mxPoint x="710.9399999999999" y="4228" as="targetPoint" />
          </mxGeometry>
        </mxCell>
        <mxCell id="9DNWAFKed83OJ6perg8Q-430" value="" style="endArrow=classic;html=1;rounded=0;fontSize=12;startSize=8;endSize=8;curved=1;exitX=0.906;exitY=0.379;exitDx=0;exitDy=0;exitPerimeter=0;entryX=0.076;entryY=0.144;entryDx=0;entryDy=0;entryPerimeter=0;" parent="1" edge="1">
          <mxGeometry width="50" height="50" relative="1" as="geometry">
            <mxPoint x="441.7499999999998" y="4141.6900000000005" as="sourcePoint" />
            <mxPoint x="703.4599999999999" y="4141.6" as="targetPoint" />
          </mxGeometry>
        </mxCell>
        <UserObject label="채팅 방 테이블에 새로운 채팅 요청 데이터 추가 DBMS 작업 요청" placeholders="1" name="Variable" id="9DNWAFKed83OJ6perg8Q-399">
          <mxCell style="text;html=1;strokeColor=none;fillColor=none;align=center;verticalAlign=middle;whiteSpace=wrap;overflow=hidden;" parent="1" vertex="1">
            <mxGeometry x="461.04999999999995" y="4108" width="230" height="32" as="geometry" />
          </mxCell>
        </UserObject>
        <mxCell id="9DNWAFKed83OJ6perg8Q-433" value="" style="endArrow=classic;html=1;rounded=0;fontSize=12;startSize=8;endSize=8;curved=0;exitX=0.988;exitY=0.302;exitDx=0;exitDy=0;entryX=1.043;entryY=0.479;entryDx=0;entryDy=0;entryPerimeter=0;exitPerimeter=0;" parent="1" edge="1">
          <mxGeometry width="50" height="50" relative="1" as="geometry">
            <mxPoint x="720.94" y="4158" as="sourcePoint" />
            <mxPoint x="721.94" y="4190" as="targetPoint" />
            <Array as="points">
              <mxPoint x="750.94" y="4158" />
              <mxPoint x="750.94" y="4190" />
            </Array>
          </mxGeometry>
        </mxCell>
        <UserObject label="채팅 방 테이블에 새로운 채팅 데이터&lt;div&gt;입력 작업 수행.&lt;/div&gt;" placeholders="1" name="Variable" id="9DNWAFKed83OJ6perg8Q-434">
          <mxCell style="text;html=1;strokeColor=none;fillColor=none;align=center;verticalAlign=middle;whiteSpace=wrap;overflow=hidden;" parent="1" vertex="1">
            <mxGeometry x="752.94" y="4163" width="220" height="32" as="geometry" />
          </mxCell>
        </UserObject>
        <mxCell id="9DNWAFKed83OJ6perg8Q-435" value="" style="endArrow=classic;html=1;rounded=0;fontSize=12;startSize=8;endSize=8;curved=1;exitX=0;exitY=0.75;exitDx=0;exitDy=0;entryX=1.105;entryY=0.577;entryDx=0;entryDy=0;entryPerimeter=0;dashed=1;" parent="1" edge="1">
          <mxGeometry width="50" height="50" relative="1" as="geometry">
            <mxPoint x="700.9399999999999" y="4208" as="sourcePoint" />
            <mxPoint x="444.7299999999998" y="4207.63" as="targetPoint" />
          </mxGeometry>
        </mxCell>
        <UserObject label="DBMS 결과 반환." placeholders="1" name="Variable" id="9DNWAFKed83OJ6perg8Q-438">
          <mxCell style="text;html=1;strokeColor=none;fillColor=none;align=center;verticalAlign=middle;whiteSpace=wrap;overflow=hidden;" parent="1" vertex="1">
            <mxGeometry x="459.04999999999995" y="4172" width="230" height="32" as="geometry" />
          </mxCell>
        </UserObject>
        <mxCell id="9DNWAFKed83OJ6perg8Q-440" value="" style="rounded=1;whiteSpace=wrap;html=1;" parent="1" vertex="1">
          <mxGeometry x="700.94" y="4118" width="20" height="110" as="geometry" />
        </mxCell>
        <mxCell id="9DNWAFKed83OJ6perg8Q-442" value="" style="endArrow=classic;html=1;rounded=0;fontSize=12;startSize=8;endSize=8;curved=1;exitX=0;exitY=0.75;exitDx=0;exitDy=0;entryX=1.105;entryY=0.577;entryDx=0;entryDy=0;entryPerimeter=0;dashed=1;" parent="1" edge="1">
          <mxGeometry width="50" height="50" relative="1" as="geometry">
            <mxPoint x="421.04999999999984" y="4304" as="sourcePoint" />
            <mxPoint x="164.83999999999986" y="4303.63" as="targetPoint" />
          </mxGeometry>
        </mxCell>
        <UserObject label="결과 반환." placeholders="1" name="Variable" id="9DNWAFKed83OJ6perg8Q-443">
          <mxCell style="text;html=1;strokeColor=none;fillColor=none;align=center;verticalAlign=middle;whiteSpace=wrap;overflow=hidden;" parent="1" vertex="1">
            <mxGeometry x="179.16000000000003" y="4268" width="230" height="32" as="geometry" />
          </mxCell>
        </UserObject>
        <mxCell id="9DNWAFKed83OJ6perg8Q-444" value="" style="endArrow=classic;html=1;rounded=0;fontSize=12;startSize=8;endSize=8;curved=1;exitX=0;exitY=0.75;exitDx=0;exitDy=0;entryX=1.105;entryY=0.577;entryDx=0;entryDy=0;entryPerimeter=0;dashed=1;" parent="1" edge="1">
          <mxGeometry width="50" height="50" relative="1" as="geometry">
            <mxPoint x="141.0499999999999" y="4335" as="sourcePoint" />
            <mxPoint x="-115.16000000000014" y="4334.63" as="targetPoint" />
          </mxGeometry>
        </mxCell>
        <UserObject label="새로운 채팅 요청 데이터를 모든 사용자&lt;div&gt;에게 동시 반환.&lt;/div&gt;" placeholders="1" name="Variable" id="9DNWAFKed83OJ6perg8Q-445">
          <mxCell style="text;html=1;strokeColor=none;fillColor=none;align=center;verticalAlign=middle;whiteSpace=wrap;overflow=hidden;" parent="1" vertex="1">
            <mxGeometry x="-100.83999999999997" y="4299" width="230" height="32" as="geometry" />
          </mxCell>
        </UserObject>
        <mxCell id="9DNWAFKed83OJ6perg8Q-446" value="" style="rounded=1;whiteSpace=wrap;html=1;" parent="1" vertex="1">
          <mxGeometry x="422.63" y="4098" width="20" height="220" as="geometry" />
        </mxCell>
        <mxCell id="9DNWAFKed83OJ6perg8Q-447" value="" style="endArrow=classic;html=1;rounded=0;fontSize=12;startSize=8;endSize=8;curved=0;exitX=0.988;exitY=0.302;exitDx=0;exitDy=0;entryX=1.043;entryY=0.479;entryDx=0;entryDy=0;entryPerimeter=0;exitPerimeter=0;" parent="1" edge="1">
          <mxGeometry width="50" height="50" relative="1" as="geometry">
            <mxPoint x="442.63" y="4258" as="sourcePoint" />
            <mxPoint x="443.63" y="4290" as="targetPoint" />
            <Array as="points">
              <mxPoint x="472.63" y="4258" />
              <mxPoint x="472.63" y="4290" />
            </Array>
          </mxGeometry>
        </mxCell>
        <UserObject label="현재 채팅 방에 참여 중인 모든 사용자들의 채팅 내역을 갱신 위한 작업 수행." placeholders="1" name="Variable" id="9DNWAFKed83OJ6perg8Q-448">
          <mxCell style="text;html=1;strokeColor=none;fillColor=none;align=center;verticalAlign=middle;whiteSpace=wrap;overflow=hidden;" parent="1" vertex="1">
            <mxGeometry x="482.63" y="4262" width="220" height="32" as="geometry" />
          </mxCell>
        </UserObject>
        <mxCell id="9DNWAFKed83OJ6perg8Q-449" value="" style="endArrow=classic;html=1;rounded=0;fontSize=12;startSize=8;endSize=8;curved=0;exitX=0.988;exitY=0.302;exitDx=0;exitDy=0;entryX=0.926;entryY=0.594;entryDx=0;entryDy=0;entryPerimeter=0;exitPerimeter=0;" parent="1" edge="1">
          <mxGeometry width="50" height="50" relative="1" as="geometry">
            <mxPoint x="-118.94999999999999" y="4370" as="sourcePoint" />
            <mxPoint x="-119.94999999999999" y="4394" as="targetPoint" />
            <Array as="points">
              <mxPoint x="-88.95" y="4370" />
              <mxPoint x="-88.95" y="4394" />
            </Array>
          </mxGeometry>
        </mxCell>
        <UserObject label="각 사용자 개별 View 내 채팅 내역 갱신" placeholders="1" name="Variable" id="9DNWAFKed83OJ6perg8Q-450">
          <mxCell style="text;html=1;strokeColor=none;fillColor=none;align=center;verticalAlign=middle;whiteSpace=wrap;overflow=hidden;" parent="1" vertex="1">
            <mxGeometry x="-85.95" y="4367" width="208" height="32" as="geometry" />
          </mxCell>
        </UserObject>
        <mxCell id="fsE95hjyOnA6iTngPiNA-5" value="" style="endArrow=classic;html=1;rounded=0;fontSize=12;startSize=8;endSize=8;curved=1;entryX=0.001;entryY=0.073;entryDx=0;entryDy=0;entryPerimeter=0;exitX=1.023;exitY=0.106;exitDx=0;exitDy=0;exitPerimeter=0;" parent="1" target="9DNWAFKed83OJ6perg8Q-80" edge="1">
          <mxGeometry width="50" height="50" relative="1" as="geometry">
            <mxPoint x="-185.30999999999995" y="349.81999999999994" as="sourcePoint" />
            <mxPoint x="-125" y="347.03999999999996" as="targetPoint" />
          </mxGeometry>
        </mxCell>
        <UserObject label="메인 페이지 요청" placeholders="1" name="Variable" id="fsE95hjyOnA6iTngPiNA-6">
          <mxCell style="text;html=1;strokeColor=none;fillColor=none;align=center;verticalAlign=middle;whiteSpace=wrap;overflow=hidden;" parent="1" vertex="1">
            <mxGeometry x="-145" y="320" width="190" height="32" as="geometry" />
          </mxCell>
        </UserObject>
        <mxCell id="-QqJvvBWoMbALO441hwc-92" value="" style="endArrow=classic;html=1;rounded=0;fontSize=12;startSize=8;endSize=8;curved=1;exitX=0.962;exitY=0.687;exitDx=0;exitDy=0;exitPerimeter=0;entryX=-0.028;entryY=0.37;entryDx=0;entryDy=0;entryPerimeter=0;" parent="1" edge="1">
          <mxGeometry width="50" height="50" relative="1" as="geometry">
            <mxPoint x="91" y="2414" as="sourcePoint" />
            <mxPoint x="344" y="2414" as="targetPoint" />
          </mxGeometry>
        </mxCell>
        <mxCell id="-QqJvvBWoMbALO441hwc-35" value="" style="endArrow=classic;html=1;rounded=0;fontSize=12;startSize=8;endSize=8;curved=1;exitX=1.026;exitY=0.39;exitDx=0;exitDy=0;exitPerimeter=0;entryX=-0.008;entryY=0.328;entryDx=0;entryDy=0;entryPerimeter=0;" parent="1" edge="1">
          <mxGeometry width="50" height="50" relative="1" as="geometry">
            <mxPoint x="370.67600000000016" y="2439.77" as="sourcePoint" />
            <mxPoint x="626.7919999999999" y="2439.768" as="targetPoint" />
          </mxGeometry>
        </mxCell>
        <mxCell id="-QqJvvBWoMbALO441hwc-93" value="" style="endArrow=classic;html=1;rounded=0;fontSize=12;startSize=8;endSize=8;curved=1;exitX=-0.053;exitY=0.908;exitDx=0;exitDy=0;exitPerimeter=0;entryX=1.028;entryY=0.842;entryDx=0;entryDy=0;dashed=1;entryPerimeter=0;" parent="1" edge="1">
          <mxGeometry width="50" height="50" relative="1" as="geometry">
            <mxPoint x="627" y="2257" as="sourcePoint" />
            <mxPoint x="373" y="2257" as="targetPoint" />
          </mxGeometry>
        </mxCell>
        <mxCell id="-QqJvvBWoMbALO441hwc-122" value="" style="rounded=1;whiteSpace=wrap;html=1;" parent="1" vertex="1">
          <mxGeometry x="627" y="2515" width="26" height="100" as="geometry" />
        </mxCell>
        <mxCell id="PbIYio_T5DRapOlMZ3oK-2" value="" style="endArrow=classic;html=1;rounded=0;fontSize=12;startSize=8;endSize=8;curved=1;entryX=1.039;entryY=0.663;entryDx=0;entryDy=0;dashed=1;entryPerimeter=0;exitX=-0.062;exitY=0.9;exitDx=0;exitDy=0;exitPerimeter=0;" edge="1" parent="1">
          <mxGeometry width="50" height="50" relative="1" as="geometry">
            <mxPoint x="624" y="2599" as="sourcePoint" />
            <mxPoint x="370" y="2599" as="targetPoint" />
          </mxGeometry>
        </mxCell>
        <mxCell id="PbIYio_T5DRapOlMZ3oK-3" value="" style="endArrow=classic;html=1;rounded=0;fontSize=12;startSize=8;endSize=8;curved=1;entryX=1.039;entryY=0.663;entryDx=0;entryDy=0;dashed=1;entryPerimeter=0;exitX=-0.062;exitY=0.9;exitDx=0;exitDy=0;exitPerimeter=0;" edge="1" parent="1">
          <mxGeometry width="50" height="50" relative="1" as="geometry">
            <mxPoint x="625" y="2706" as="sourcePoint" />
            <mxPoint x="371" y="2706" as="targetPoint" />
          </mxGeometry>
        </mxCell>
        <mxCell id="PbIYio_T5DRapOlMZ3oK-7" value="" style="endArrow=classic;html=1;rounded=0;fontSize=12;startSize=8;endSize=8;curved=0;entryX=-0.034;entryY=0.122;entryDx=0;entryDy=0;entryPerimeter=0;" edge="1" parent="1">
          <mxGeometry width="50" height="50" relative="1" as="geometry">
            <mxPoint x="626.14" y="2485" as="sourcePoint" />
            <mxPoint x="626" y="2649" as="targetPoint" />
            <Array as="points">
              <mxPoint x="600.14" y="2485" />
              <mxPoint x="600" y="2649" />
            </Array>
          </mxGeometry>
        </mxCell>
        <mxCell id="PbIYio_T5DRapOlMZ3oK-9" value="" style="rounded=1;whiteSpace=wrap;html=1;" vertex="1" parent="1">
          <mxGeometry x="344" y="2400" width="26" height="385" as="geometry" />
        </mxCell>
        <mxCell id="PbIYio_T5DRapOlMZ3oK-50" value="" style="endArrow=classic;html=1;rounded=0;fontSize=12;startSize=8;endSize=8;curved=0;entryX=-0.008;entryY=0.215;entryDx=0;entryDy=0;entryPerimeter=0;exitX=-0.021;exitY=0.987;exitDx=0;exitDy=0;exitPerimeter=0;" edge="1" parent="1">
          <mxGeometry width="50" height="50" relative="1" as="geometry">
            <mxPoint x="64" y="2875" as="sourcePoint" />
            <mxPoint x="64" y="2925" as="targetPoint" />
            <Array as="points">
              <mxPoint x="40" y="2875" />
              <mxPoint x="40" y="2925" />
            </Array>
          </mxGeometry>
        </mxCell>
        <mxCell id="PbIYio_T5DRapOlMZ3oK-51" value="" style="endArrow=classic;html=1;rounded=0;fontSize=12;startSize=8;endSize=8;curved=0;entryX=0;entryY=0.25;entryDx=0;entryDy=0;exitX=-0.088;exitY=0.987;exitDx=0;exitDy=0;exitPerimeter=0;" edge="1" parent="1">
          <mxGeometry width="50" height="50" relative="1" as="geometry">
            <mxPoint x="62.71199999999999" y="2875.2889999999998" as="sourcePoint" />
            <mxPoint x="64" y="3157.5000000000005" as="targetPoint" />
            <Array as="points">
              <mxPoint x="39.99999999999994" y="2875" />
              <mxPoint x="40" y="3158" />
            </Array>
          </mxGeometry>
        </mxCell>
        <mxCell id="PbIYio_T5DRapOlMZ3oK-64" value="" style="rounded=1;whiteSpace=wrap;html=1;" vertex="1" parent="1">
          <mxGeometry x="906" y="2950" width="26" height="125" as="geometry" />
        </mxCell>
        <mxCell id="PbIYio_T5DRapOlMZ3oK-65" value="" style="endArrow=none;dashed=1;html=1;dashPattern=1 3;strokeWidth=2;rounded=0;exitX=0;exitY=0.57;exitDx=0;exitDy=0;exitPerimeter=0;" edge="1" parent="1">
          <mxGeometry width="50" height="50" relative="1" as="geometry">
            <mxPoint x="-122.00000000000003" y="3122.56" as="sourcePoint" />
            <mxPoint x="1190" y="3122" as="targetPoint" />
          </mxGeometry>
        </mxCell>
        <mxCell id="PbIYio_T5DRapOlMZ3oK-84" value="" style="rounded=1;whiteSpace=wrap;html=1;" vertex="1" parent="1">
          <mxGeometry x="64" y="3140" width="26" height="70" as="geometry" />
        </mxCell>
        <mxCell id="PbIYio_T5DRapOlMZ3oK-87" value="" style="rounded=1;whiteSpace=wrap;html=1;" vertex="1" parent="1">
          <mxGeometry x="65" y="2093" width="26" height="217" as="geometry" />
        </mxCell>
        <mxCell id="PbIYio_T5DRapOlMZ3oK-104" value="" style="endArrow=none;dashed=1;html=1;dashPattern=1 3;strokeWidth=2;rounded=0;exitX=0;exitY=0.57;exitDx=0;exitDy=0;exitPerimeter=0;entryX=1;entryY=0.349;entryDx=0;entryDy=0;entryPerimeter=0;" edge="1" parent="1">
          <mxGeometry width="50" height="50" relative="1" as="geometry">
            <mxPoint x="-350" y="2360.56" as="sourcePoint" />
            <mxPoint x="1200" y="2359" as="targetPoint" />
          </mxGeometry>
        </mxCell>
      </root>
    </mxGraphModel>
  </diagram>
</mxfile>
